<?xml version="1.0" standalone="no"?>
<!DOCTYPE svg PUBLIC "-//W3C//DTD SVG 20010904//EN"
 "http://www.w3.org/TR/2001/REC-SVG-20010904/DTD/svg10.dtd">
<svg version="1.0" xmlns="http://www.w3.org/2000/svg"
 width="500.000000pt" height="500.000000pt" viewBox="0 0 500.000000 500.000000"
 preserveAspectRatio="xMidYMid meet">
<metadata>
Created by potrace 1.14, written by Peter Selinger 2001-2017
</metadata>
<g transform="translate(0.000000,500.000000) scale(0.100000,-0.100000)"
fill="#000000" stroke="none">
<path d="M2190 4984 c-569 -72 -1077 -326 -1476 -735 -188 -194 -313 -363
-428 -580 -194 -367 -286 -741 -286 -1164 0 -574 177 -1091 528 -1545 79 -102
309 -335 407 -412 457 -359 995 -548 1560 -548 803 0 1543 377 2021 1030 437
596 583 1336 408 2067 -168 703 -657 1317 -1307 1640 -366 182 -723 264 -1137
262 -102 -1 -232 -7 -290 -15z m98 -174 c15 0 15 2 2 10 -10 6 51 10 183 10
125 0 197 -4 197 -10 0 -5 5 -10 11 -10 5 0 7 5 4 11 -7 10 57 5 75 -6 4 -3
36 -5 70 -6 34 -1 57 -5 50 -9 -6 -4 7 -8 29 -9 66 -3 81 -5 81 -11 0 -4 13
-5 29 -2 28 4 89 -21 103 -42 5 -8 8 -7 8 2 0 6 5 12 11 12 5 0 8 -4 5 -9 -7
-10 40 -24 53 -16 5 3 25 -2 44 -10 19 -8 37 -12 40 -9 3 3 8 1 11 -4 3 -5
-11 -8 -30 -7 -19 2 -32 0 -29 -3 3 -4 23 -7 43 -8 68 -2 92 -13 88 -39 -3
-18 -1 -22 11 -18 11 4 11 8 3 13 -8 5 -8 10 -2 14 18 11 23 -26 5 -41 -16
-13 -16 -13 5 -3 14 7 21 17 18 25 -3 8 0 17 6 21 6 4 8 3 5 -3 -4 -7 8 -14
28 -17 23 -5 33 -11 29 -18 -5 -7 -2 -9 8 -5 17 6 52 -24 43 -36 -3 -4 1 -3 7
3 17 14 35 13 21 -1 -13 -13 -6 -39 9 -39 6 0 5 6 -2 15 -10 12 -10 15 4 15 9
0 16 -5 16 -11 0 -7 10 -9 25 -7 20 4 23 2 15 -12 -8 -15 -6 -17 11 -13 11 3
28 -2 38 -11 10 -9 21 -13 26 -9 4 5 5 2 1 -4 -4 -8 -2 -13 5 -13 7 0 4 -7 -7
-15 -18 -14 -18 -14 4 -8 12 3 22 10 22 15 0 6 7 4 16 -3 10 -8 29 -19 43 -26
14 -6 20 -12 14 -12 -16 -1 -17 -27 -1 -37 8 -5 9 -2 4 11 -5 15 -4 16 9 5 18
-15 20 -37 3 -42 -7 -3 -4 -7 7 -12 11 -4 16 -4 12 0 -4 5 3 14 15 22 14 8 16
11 5 8 -11 -3 -15 -2 -12 4 3 6 2 10 -3 10 -6 0 -12 7 -16 15 -4 11 3 9 24 -7
22 -16 27 -25 19 -34 -7 -8 -6 -14 2 -20 7 -4 9 -3 5 4 -4 6 1 10 13 9 11 0
17 -6 14 -14 -3 -8 3 -13 15 -13 12 0 24 -5 28 -12 5 -7 2 -8 -7 -3 -11 6 -12
5 -1 -6 15 -16 16 -33 0 -23 -7 4 -8 3 -4 -4 5 -9 12 -8 26 0 16 10 22 10 32
-1 11 -11 10 -12 -1 -6 -9 5 -12 4 -7 -3 4 -6 14 -8 23 -5 13 5 15 2 10 -11
-4 -11 -3 -15 4 -11 12 8 51 -24 43 -36 -9 -15 -26 -10 -20 7 4 10 2 13 -6 8
-7 -5 -8 -2 -3 7 5 8 5 11 1 7 -4 -3 -8 -10 -8 -15 0 -4 -5 -17 -11 -28 -9
-17 -8 -18 5 -8 8 7 17 10 21 7 3 -3 16 0 29 7 22 12 22 11 8 -6 -10 -12 -10
-16 -2 -11 8 5 24 -3 43 -23 16 -18 35 -29 41 -25 6 4 8 3 4 -4 -3 -6 2 -17
12 -24 11 -7 21 -17 23 -23 2 -5 8 -9 13 -7 5 2 4 -4 -3 -12 -10 -12 -9 -14 6
-10 26 7 57 -29 51 -60 -3 -16 -1 -23 7 -20 6 3 25 -9 42 -25 23 -22 28 -32
19 -41 -8 -8 -7 -10 5 -5 16 6 36 -21 24 -33 -3 -3 -5 0 -5 6 0 7 -4 12 -8 12
-5 0 -9 -6 -9 -14 0 -9 8 -13 21 -10 11 2 28 -5 38 -16 10 -11 16 -20 13 -20
-3 0 5 -15 19 -33 32 -42 34 -63 3 -25 l-23 28 -2 -29 c-1 -16 2 -32 7 -35 5
-4 7 4 3 16 -5 23 -5 23 16 5 12 -11 26 -16 33 -11 8 5 10 0 7 -19 -3 -15 -1
-24 3 -21 11 7 27 -28 21 -46 -5 -13 -3 -13 14 0 10 8 16 11 12 6 -4 -5 -3
-17 3 -27 7 -15 6 -19 -6 -19 -18 0 -19 -9 -4 -30 9 -13 10 -12 5 3 -7 22 -1
22 23 -2 13 -13 16 -23 9 -35 -5 -9 -7 -24 -5 -34 4 -13 5 -12 6 5 1 29 16 36
32 16 10 -12 10 -14 2 -9 -7 4 -13 4 -14 -1 0 -4 -2 -19 -4 -33 -3 -32 14 -57
26 -38 12 18 11 28 -2 28 -5 0 -7 -6 -3 -12 4 -7 3 -10 -1 -5 -14 12 -13 44 2
44 7 0 11 -3 8 -5 -3 -3 2 -14 12 -24 12 -14 13 -18 2 -18 -7 0 -3 -7 10 -16
16 -12 20 -19 11 -24 -9 -6 -6 -14 10 -30 13 -13 20 -29 17 -41 -3 -10 -1 -17
4 -13 5 3 9 -4 9 -15 0 -12 -5 -21 -12 -21 -6 0 -8 -3 -5 -6 4 -4 13 -2 20 4
11 9 13 4 13 -27 -1 -22 1 -37 3 -35 2 2 12 -9 22 -25 15 -26 26 -68 33 -129
1 -12 8 -28 14 -34 7 -7 12 -19 12 -27 0 -14 -1 -14 -10 -1 -5 8 -10 10 -10 5
0 -6 5 -16 11 -22 6 -6 13 -26 15 -44 9 -85 17 -125 26 -136 5 -6 9 -43 9 -82
0 -39 5 -86 10 -103 6 -22 6 -34 -1 -36 -6 -2 -6 -10 0 -23 15 -26 11 -239 -4
-239 -8 0 -8 -3 0 -8 13 -8 10 -59 -5 -110 -6 -21 -6 -30 0 -26 6 3 7 -5 3
-22 -4 -16 -7 -41 -7 -56 0 -16 -4 -28 -9 -28 -4 0 -8 -20 -8 -45 0 -25 -5
-45 -11 -45 -5 0 -7 -5 -3 -11 3 -6 1 -15 -6 -19 -9 -6 -9 -12 -1 -29 7 -13 8
-21 2 -21 -6 0 -7 -7 -4 -17 5 -12 3 -14 -7 -8 -10 6 -12 4 -6 -10 4 -11 2
-22 -5 -26 -13 -8 -17 -22 -23 -77 -2 -18 -6 -35 -9 -38 -11 -11 -34 21 -30
41 3 13 -1 9 -11 -9 -18 -32 -15 -57 6 -55 10 0 10 2 1 6 -7 2 -13 11 -13 19
0 20 19 7 29 -20 10 -24 -12 -76 -31 -76 -9 0 -9 -3 -1 -11 6 -6 9 -18 5 -27
-5 -13 -7 -12 -14 4 -6 14 -7 9 -5 -18 2 -20 -1 -34 -5 -32 -4 3 -8 -1 -8 -8
0 -7 -12 -35 -26 -62 -14 -26 -23 -50 -20 -53 3 -3 -2 -12 -10 -20 -8 -8 -11
-19 -8 -25 4 -7 2 -8 -4 -4 -7 4 -12 0 -12 -10 0 -10 -7 -25 -16 -35 -8 -9
-16 -23 -17 -31 -4 -26 -56 -91 -93 -116 -10 -7 -13 -10 -6 -6 10 4 9 -4 -3
-32 -19 -47 -44 -76 -58 -67 -6 4 -8 0 -5 -9 4 -9 -5 -27 -20 -44 -15 -16 -26
-32 -24 -37 1 -5 -2 -6 -7 -3 -9 6 -38 -23 -33 -33 5 -10 -62 -90 -81 -96 -10
-4 -14 -11 -10 -18 4 -7 -2 -5 -12 3 -10 8 -16 10 -12 4 11 -18 -22 -56 -44
-49 -11 4 -19 2 -19 -5 0 -6 4 -9 8 -6 5 3 9 -1 9 -9 0 -9 -5 -11 -16 -6 -9 4
-27 5 -41 0 -23 -6 -23 -7 -3 -8 21 -1 25 -15 10 -39 -5 -7 -13 -9 -19 -6 -6
4 -8 2 -4 -4 10 -17 -13 -25 -32 -10 -15 12 -16 11 -4 -4 11 -14 10 -19 -9
-37 -19 -17 -23 -18 -36 -5 -18 18 -29 19 -14 1 15 -19 -10 -53 -33 -44 -9 4
-16 2 -16 -3 0 -6 5 -10 12 -10 7 0 -3 -11 -22 -25 -18 -13 -36 -22 -40 -20
-5 3 -10 -2 -14 -10 -3 -8 -11 -15 -17 -15 -7 0 -21 -8 -32 -18 -15 -12 -18
-13 -13 -2 4 8 -4 3 -18 -13 -14 -15 -29 -27 -33 -27 -5 0 -19 -10 -33 -23
-14 -13 -31 -22 -37 -20 -6 2 -18 -6 -27 -19 -9 -12 -16 -18 -16 -14 0 5 7 17
16 27 12 13 13 22 5 36 -10 16 -10 15 -8 -7 1 -16 -3 -24 -11 -22 -8 1 -11 -2
-8 -6 3 -5 -3 -20 -14 -32 -11 -13 -20 -20 -20 -16 0 3 -27 -8 -61 -24 -34
-17 -58 -25 -53 -18 4 7 -4 4 -17 -7 -37 -31 -66 -45 -94 -45 -14 0 -25 -4
-25 -10 0 -5 -12 -13 -27 -16 -16 -4 -34 -11 -40 -17 -9 -6 -13 -6 -13 1 0 5
-6 12 -14 15 -8 3 -13 -1 -12 -11 1 -13 -9 -18 -41 -20 -24 -2 -43 -8 -43 -14
0 -6 -11 -8 -25 -6 -15 3 -25 1 -25 -7 0 -7 -14 -11 -37 -10 -21 1 -50 -4 -65
-12 -15 -7 -40 -13 -56 -13 -15 0 -32 -4 -38 -9 -5 -5 -35 -11 -67 -13 -37 -3
-53 -1 -45 5 9 6 6 6 -7 1 -11 -4 -28 -7 -37 -8 -10 0 -18 -3 -18 -7 0 -10
-357 -9 -400 1 -19 4 -44 11 -55 15 -16 6 -17 5 -5 -4 18 -14 -59 -5 -102 11
-16 6 -39 8 -53 6 -13 -3 -22 -1 -19 4 3 5 -6 6 -22 2 -19 -5 -25 -4 -20 5 5
7 -5 11 -31 12 -30 0 -34 2 -18 9 11 5 15 9 8 9 -20 1 -43 -11 -38 -19 3 -5
-23 2 -57 16 -35 13 -68 22 -74 20 -6 -2 -25 4 -43 15 -21 13 -31 15 -31 6 0
-8 -3 -9 -8 -1 -4 6 -20 16 -37 21 -17 6 -29 17 -29 25 1 10 -5 14 -16 11 -10
-3 -21 0 -24 6 -4 6 -13 11 -19 11 -7 0 -6 -4 3 -11 11 -8 9 -9 -10 -3 -31 8
-39 15 -23 21 8 3 7 9 -5 21 -19 19 -43 7 -34 -16 4 -12 1 -12 -16 -1 -15 10
-18 16 -9 22 8 5 5 7 -8 4 -32 -6 -93 29 -97 55 -2 14 -16 29 -36 40 -27 13
-30 17 -15 21 10 3 5 4 -10 4 l-29 -1 24 -20 23 -19 -34 7 c-19 3 -42 13 -51
21 -9 8 -21 12 -25 8 -5 -5 -3 0 4 10 8 9 11 20 7 24 -3 3 -6 1 -6 -5 0 -7 -4
-12 -9 -12 -5 0 -8 7 -7 16 0 9 -6 19 -14 21 -13 4 -13 3 0 -6 11 -8 12 -11 2
-11 -7 0 -10 -5 -6 -12 4 -7 3 -8 -5 -4 -6 4 -9 12 -6 17 4 5 -3 9 -15 9 -11
0 -23 7 -26 15 -4 8 -10 12 -15 9 -5 -3 -9 -1 -9 4 0 5 -12 14 -26 20 -15 7
-22 17 -18 24 5 8 1 9 -12 5 -17 -6 -17 -6 -2 6 15 12 15 14 -5 27 -20 12 -21
12 -8 -3 8 -10 9 -17 3 -17 -6 0 -14 5 -17 10 -4 6 -10 8 -14 5 -5 -2 -17 6
-27 20 -10 13 -23 21 -28 18 -6 -4 -2 4 9 18 13 15 14 19 3 11 -11 -9 -18 -10
-23 -2 -3 6 -11 7 -17 4 -8 -5 -9 -1 -5 10 4 9 3 15 -2 12 -4 -3 -17 3 -28 14
-12 10 -24 16 -29 12 -4 -4 -4 -1 0 6 5 8 -2 16 -19 22 -20 8 -25 15 -21 35 3
15 1 23 -5 20 -5 -4 -6 -12 -2 -18 4 -7 0 -6 -10 2 -9 7 -15 17 -12 21 3 4 -3
14 -12 21 -14 12 -15 12 -9 1 7 -11 4 -12 -13 -3 -11 7 -21 14 -21 17 0 3 6 2
13 -2 6 -4 3 2 -7 14 -11 12 -26 22 -34 22 -9 0 -12 3 -9 7 4 3 -1 11 -10 18
-13 9 -13 14 -3 20 9 6 11 4 5 -4 -6 -10 -3 -11 15 -1 20 11 22 10 17 -4 -6
-16 8 -32 17 -18 9 15 -13 36 -41 38 -41 2 -43 3 -43 15 0 7 -8 18 -18 26 -9
8 -12 12 -6 9 16 -8 39 20 24 29 -6 4 -9 3 -8 -2 3 -9 -5 -13 -24 -13 -9 0 -8
4 2 11 12 9 11 10 -7 6 -13 -3 -23 0 -23 5 0 6 -8 17 -17 24 -15 11 -15 15 -5
22 11 7 10 10 -3 15 -9 4 -13 3 -10 -2 3 -5 1 -12 -4 -15 -4 -3 -8 4 -7 17 0
12 -4 21 -11 20 -6 -1 -17 5 -24 15 -11 14 -11 15 0 5 10 -9 17 -8 31 5 23 23
33 53 15 46 -8 -3 -11 -13 -7 -22 5 -15 3 -15 -11 -4 -9 8 -22 12 -29 9 -8 -4
-7 -6 5 -6 9 -1 17 -6 17 -11 0 -7 -6 -7 -20 0 -32 17 -54 70 -29 70 6 0 8 -7
5 -17 -4 -10 -3 -14 1 -9 11 10 12 66 1 60 -5 -3 -6 -10 -3 -15 8 -12 3 -11
-31 1 -15 6 -24 13 -21 16 3 4 0 12 -7 19 -7 7 -12 29 -11 49 1 19 -2 33 -6
30 -4 -2 -6 -13 -4 -24 2 -13 -1 -17 -10 -14 -7 3 -12 15 -10 26 3 11 -6 30
-20 44 -13 13 -20 24 -15 24 6 0 10 5 10 11 0 5 -4 8 -9 4 -16 -10 -32 30 -18
45 7 7 7 10 2 7 -6 -3 -17 3 -24 15 -9 15 -9 18 0 13 7 -5 10 -3 7 6 -3 8 -10
15 -16 15 -7 1 -15 2 -19 3 -5 1 6 13 22 27 26 22 27 23 4 9 -26 -16 -27 -15
-39 17 -7 18 -12 39 -11 47 1 7 -2 10 -7 7 -5 -3 -8 9 -7 27 2 21 -5 40 -18
54 -17 20 -18 26 -7 52 7 17 15 29 19 27 4 -3 7 4 7 15 0 19 -1 19 -13 3 -7
-10 -13 -13 -13 -7 0 6 -8 14 -17 17 -15 6 -15 4 2 -14 10 -11 16 -22 13 -25
-9 -10 -29 23 -35 57 -3 18 -10 36 -16 40 -9 6 -9 13 1 29 11 17 11 24 -3 45
-8 13 -14 24 -11 24 2 0 -4 27 -14 61 -14 44 -16 68 -9 86 5 14 5 22 0 19 -5
-4 -12 27 -16 66 -7 81 0 483 9 538 4 19 6 48 6 64 0 16 6 39 15 52 9 15 13
34 9 53 -4 20 -2 31 4 31 7 0 9 -8 5 -17 -3 -10 -2 -15 2 -10 5 4 8 33 7 65
-1 31 1 52 4 45 8 -18 34 -4 34 18 0 10 -4 19 -10 19 -15 0 -12 30 4 36 8 3
12 14 9 27 -4 21 -4 21 10 4 13 -16 15 -16 21 -1 4 9 -1 28 -9 41 -13 19 -14
28 -5 38 7 8 9 19 5 24 -4 7 1 8 12 4 16 -6 16 -5 4 10 -11 14 -11 18 3 23 9
3 13 10 10 15 -3 5 5 18 18 29 13 11 17 19 11 20 -7 0 -13 -4 -13 -10 0 -5 -5
-10 -12 -10 -6 0 -2 10 9 23 11 12 23 38 27 59 4 20 13 39 22 42 8 3 13 10 9
15 -3 5 -1 12 5 16 5 3 10 15 10 26 0 11 10 24 23 29 12 5 16 9 9 9 -14 1 13
50 35 64 8 5 11 12 8 17 -3 4 2 10 10 14 8 3 15 10 15 16 0 6 -5 8 -12 4 -7
-4 -8 -3 -4 5 4 6 12 9 17 6 5 -4 9 5 9 19 0 24 10 31 34 27 5 -1 5 4 -1 11
-7 9 -5 22 8 43 11 17 19 24 19 16 0 -14 15 -7 15 7 1 20 27 51 39 46 9 -3 17
3 21 15 3 12 11 21 16 21 5 0 9 6 9 13 -1 6 -9 2 -20 -11 -10 -12 -21 -19 -23
-15 -6 10 49 74 57 66 3 -3 10 5 15 18 5 13 36 53 70 88 34 35 61 68 61 73 0
4 6 8 14 8 7 0 21 11 30 25 9 14 23 25 31 25 9 0 12 6 9 15 -4 11 -2 13 9 9 8
-3 18 0 23 7 5 8 3 10 -7 5 -8 -4 -5 -1 6 8 11 8 35 30 54 48 18 18 30 28 27
21 -3 -6 -1 -15 5 -19 7 -4 9 -3 6 3 -8 12 29 63 46 63 6 0 1 -9 -11 -21 -23
-21 -22 -39 2 -39 8 0 19 6 25 14 10 12 8 14 -11 9 -20 -4 -21 -3 -8 9 9 7 21
24 27 38 6 14 12 20 12 13 1 -7 8 -10 16 -6 9 3 15 2 13 -3 -2 -5 2 -9 7 -9 5
0 8 5 6 10 -12 33 -11 43 5 49 14 5 15 4 4 -9 -8 -9 -8 -15 -2 -15 6 0 14 9
17 20 3 11 12 20 20 20 7 0 15 7 19 15 6 17 26 20 26 4 0 -5 -4 -8 -8 -5 -5 3
-9 -2 -9 -11 0 -13 4 -12 18 5 9 12 22 22 28 22 5 0 17 10 25 22 11 16 16 18
16 7 0 -8 -5 -20 -12 -27 -9 -9 -9 -12 0 -12 14 0 27 44 17 59 -3 7 0 8 9 5 9
-3 13 -11 9 -17 -4 -6 -1 -7 6 -3 7 5 10 15 6 24 -3 9 -3 13 1 10 3 -4 13 -1
21 7 8 8 20 15 26 15 8 0 8 -3 2 -8 -5 -4 -17 -16 -25 -27 -15 -19 -15 -19 12
0 15 11 30 28 33 38 4 9 15 17 25 17 11 0 23 7 28 16 8 14 10 14 21 0 8 -9 18
-16 24 -16 6 0 2 7 -9 15 -15 11 -16 14 -3 15 8 0 20 -5 27 -12 7 -7 12 -8 12
-4 0 5 -8 15 -17 23 -16 13 -16 14 -1 9 9 -3 33 6 52 19 20 14 36 20 36 15 0
-5 -8 -14 -17 -19 -10 -6 -13 -11 -7 -11 6 0 19 9 30 21 17 19 19 19 25 2 7
-15 8 -15 8 5 1 13 5 21 10 18 5 -4 11 -2 13 2 1 5 17 12 33 16 21 5 26 4 15
-3 -12 -8 -11 -10 7 -9 14 2 19 7 15 18 -5 13 -3 13 11 1 14 -11 18 -11 23 3
3 9 10 16 16 16 5 0 7 -4 3 -9 -3 -5 -1 -12 4 -15 12 -8 22 19 11 30 -5 5 5
10 23 11 30 2 31 1 13 -12 -11 -8 -16 -15 -11 -15 5 0 21 11 35 25 20 20 38
26 73 27 26 0 44 4 41 9 -3 5 3 6 12 2 10 -4 15 -2 11 3 -3 5 6 10 21 11 15 1
45 4 67 7 114 18 150 21 153 14 2 -5 11 -8 20 -8z m-984 -305 c-4 -8 -11 -15
-16 -15 -6 0 -5 6 2 15 7 8 14 15 16 15 2 0 1 -7 -2 -15z m3490 -1541 c3 -8 2
-12 -4 -9 -6 3 -10 10 -10 16 0 14 7 11 14 -7z m-4494 -1224 c0 -5 -2 -10 -4
-10 -3 0 -8 5 -11 10 -3 6 -1 10 4 10 6 0 11 -4 11 -10z m230 -464 c0 -3 -4
-8 -10 -11 -5 -3 -10 -1 -10 4 0 6 5 11 10 11 6 0 10 -2 10 -4z m3568 -481
c-3 -3 -9 2 -12 12 -6 14 -5 15 5 6 7 -7 10 -15 7 -18z m-2689 -341 c3 -15 1
-16 -11 -6 -8 6 -18 9 -21 5 -4 -3 -7 -2 -7 4 0 29 33 27 39 -3z m166 -73 c3
-5 1 -12 -5 -16 -5 -3 -10 1 -10 9 0 18 6 21 15 7z"/>
<path d="M2228 4803 c6 -2 18 -2 25 0 6 3 1 5 -13 5 -14 0 -19 -2 -12 -5z"/>
<path d="M2715 4800 c-3 -6 1 -7 9 -4 18 7 21 14 7 14 -6 0 -13 -4 -16 -10z"/>
<path d="M2283 4793 c9 -2 23 -2 30 0 6 3 -1 5 -18 5 -16 0 -22 -2 -12 -5z"/>
<path d="M2808 4793 c7 -3 16 -2 19 1 4 3 -2 6 -13 5 -11 0 -14 -3 -6 -6z"/>
<path d="M2065 4781 c-3 -5 -2 -12 3 -15 5 -3 9 1 9 9 0 17 -3 19 -12 6z"/>
<path d="M2229 4782 c12 -8 11 -11 -3 -15 -15 -4 -15 -5 1 -3 19 1 21 19 1 24
-10 3 -10 1 1 -6z"/>
<path d="M2820 4779 c-22 -8 -21 -8 8 -4 20 3 31 1 27 -5 -8 -13 6 -13 25 0 9
6 10 10 3 10 -6 0 -17 2 -25 4 -7 2 -24 0 -38 -5z"/>
<path d="M2910 4780 c8 -5 20 -10 25 -10 6 0 3 5 -5 10 -8 5 -19 10 -25 10 -5
0 -3 -5 5 -10z"/>
<path d="M2138 4773 c7 -3 16 -2 19 1 4 3 -2 6 -13 5 -11 0 -14 -3 -6 -6z"/>
<path d="M1910 4745 c0 -9 6 -12 15 -9 8 4 12 10 9 15 -8 14 -24 10 -24 -6z"/>
<path d="M2058 4743 c7 -3 16 -2 19 1 4 3 -2 6 -13 5 -11 0 -14 -3 -6 -6z"/>
<path d="M3040 4740 c0 -5 4 -10 9 -10 6 0 13 5 16 10 3 6 -1 10 -9 10 -9 0
-16 -4 -16 -10z"/>
<path d="M2890 4730 c0 -5 5 -10 10 -10 6 0 10 5 10 10 0 6 -4 10 -10 10 -5 0
-10 -4 -10 -10z"/>
<path d="M3145 4710 c-3 -5 -3 -10 2 -10 4 0 1 -5 -7 -10 -8 -5 -10 -10 -5
-10 6 0 17 5 25 10 13 9 13 10 0 10 -13 0 -13 1 0 10 9 6 10 10 3 10 -6 0 -15
-4 -18 -10z"/>
<path d="M3193 4712 c-9 -5 -6 -12 10 -21 20 -13 21 -13 9 1 -10 13 -10 17 0
21 7 3 9 6 3 6 -5 0 -15 -3 -22 -7z"/>
<path d="M1583 4625 c0 -7 10 -10 24 -7 13 2 23 6 23 7 0 1 -10 5 -23 7 -14 3
-24 0 -24 -7z"/>
<path d="M3420 4621 c0 -6 4 -12 8 -15 5 -3 9 1 9 9 0 8 -4 15 -9 15 -4 0 -8
-4 -8 -9z"/>
<path d="M1635 4610 c-3 -6 1 -7 9 -4 18 7 21 14 7 14 -6 0 -13 -4 -16 -10z"/>
<path d="M1415 4530 c-3 -6 1 -7 9 -4 18 7 21 14 7 14 -6 0 -13 -4 -16 -10z"/>
<path d="M1545 4530 c-3 -5 -1 -10 4 -10 6 0 11 5 11 10 0 6 -2 10 -4 10 -3 0
-8 -4 -11 -10z"/>
<path d="M1344 4479 c-3 -6 -2 -15 3 -20 5 -5 9 -1 9 11 0 23 -2 24 -12 9z"/>
<path d="M3705 4456 c-17 -12 -17 -13 3 -11 26 2 37 11 24 19 -5 3 -17 -1 -27
-8z"/>
<path d="M1295 4450 c-3 -5 -2 -10 4 -10 5 0 13 5 16 10 3 6 2 10 -4 10 -5 0
-13 -4 -16 -10z"/>
<path d="M3764 4390 c0 -13 4 -16 10 -10 7 7 7 13 0 20 -6 6 -10 3 -10 -10z"/>
<path d="M1000 4249 c0 -5 5 -7 10 -4 6 3 10 8 10 11 0 2 -4 4 -10 4 -5 0 -10
-5 -10 -11z"/>
<path d="M945 4210 c-3 -5 -1 -10 4 -10 6 0 11 5 11 10 0 6 -2 10 -4 10 -3 0
-8 -4 -11 -10z"/>
<path d="M2385 4160 c27 -12 43 -12 25 0 -8 5 -22 9 -30 9 -10 0 -8 -3 5 -9z"/>
<path d="M4091 4137 c-8 -11 -4 -13 19 -12 16 1 33 5 37 10 5 4 3 5 -4 1 -6
-3 -14 -2 -18 4 -8 14 -20 13 -34 -3z"/>
<path d="M2530 4131 c0 -5 -7 -11 -16 -13 -11 -2 -6 -7 13 -14 27 -10 29 -9
31 13 1 15 -4 23 -13 23 -8 0 -15 -4 -15 -9z"/>
<path d="M2261 4111 c-19 -12 4 -24 30 -16 17 6 19 9 8 16 -17 11 -21 11 -38
0z"/>
<path d="M2352 4107 c-12 -7 -20 -16 -17 -19 3 -3 -5 -3 -19 -1 -16 3 -31 -2
-45 -16 -12 -12 -23 -21 -26 -21 -3 0 -10 0 -15 0 -6 0 -23 -12 -37 -27 -15
-16 -23 -22 -18 -14 6 11 4 13 -7 8 -9 -3 -21 0 -27 6 -9 9 -11 8 -6 -5 4 -10
12 -18 17 -18 7 0 7 -4 0 -13 -14 -16 -62 -20 -62 -5 0 6 -2 9 -5 6 -10 -9 7
-38 18 -31 6 3 7 1 3 -6 -6 -9 -11 -9 -21 -1 -10 9 -13 7 -10 -7 4 -26 -5 -36
-21 -22 -11 9 -14 7 -14 -10 0 -11 -4 -21 -10 -21 -5 0 -10 -5 -10 -11 0 -5 5
-7 11 -4 6 4 5 -2 -2 -13 -7 -12 -17 -18 -22 -15 -5 3 -5 -3 1 -13 7 -13 6
-26 -4 -47 -8 -15 -17 -44 -20 -64 -5 -44 -12 -52 -25 -33 -9 12 -9 10 -3 -5
8 -22 8 -39 0 -105 -8 -62 -24 -107 -42 -114 -8 -3 -12 -2 -9 3 3 6 -8 9 -25
9 -20 -1 -29 -5 -26 -14 2 -6 2 -15 -2 -19 -4 -4 -7 -16 -7 -28 -1 -12 -6 -21
-13 -20 -8 2 -9 -4 -2 -23 7 -17 7 -23 0 -19 -9 5 -15 -14 -11 -37 0 -4 -6
-25 -14 -48 -8 -23 -12 -46 -9 -51 3 -5 1 -9 -5 -9 -5 0 -12 8 -14 18 -2 9 -2
6 0 -8 2 -14 8 -54 14 -90 5 -36 12 -72 15 -80 8 -20 17 -101 18 -177 1 -43 4
-59 12 -52 15 13 25 0 15 -20 -6 -11 -4 -23 5 -36 17 -23 18 -39 2 -29 -7 4
-5 -2 6 -14 10 -12 16 -28 12 -37 -3 -9 -2 -13 3 -10 5 3 13 0 17 -6 3 -6 2
-14 -4 -18 -15 -9 -19 -43 -5 -48 7 -3 9 3 6 16 -3 13 -1 21 6 21 7 0 10 -4 6
-10 -3 -5 1 -26 10 -46 8 -20 13 -47 11 -60 -3 -13 -1 -26 4 -29 5 -3 7 4 5
16 -2 12 -1 19 2 15 12 -11 12 -40 1 -53 -7 -9 -5 -17 6 -28 9 -9 16 -26 16
-38 0 -20 20 -62 20 -43 0 5 7 3 16 -5 8 -7 13 -20 11 -30 -3 -12 0 -16 10
-12 13 5 13 2 4 -16 -7 -12 -9 -26 -6 -31 3 -6 1 -10 -5 -10 -6 0 -8 -5 -4
-11 9 -15 24 9 17 28 -3 7 -1 13 5 13 12 0 33 -56 25 -64 -4 -3 0 -6 7 -6 7 0
10 -3 7 -7 -4 -3 1 -11 9 -18 9 -6 18 -22 19 -36 1 -13 3 -30 4 -37 0 -8 6
-10 14 -6 8 5 7 2 -2 -9 -12 -16 -12 -17 5 -10 17 6 17 5 5 -10 -12 -15 -11
-17 3 -17 9 0 16 -4 16 -9 0 -6 -10 -7 -22 -5 -13 3 -47 10 -77 15 -29 5 -63
14 -74 20 -15 8 -18 8 -12 -1 5 -9 1 -10 -16 -5 -13 4 -25 12 -27 16 -2 5 -8
9 -13 9 -6 0 -7 -4 -4 -10 3 -6 -1 -7 -9 -4 -9 3 -14 9 -12 13 3 4 -7 6 -22 6
-15 -1 -32 2 -37 6 -6 5 -94 9 -195 10 -102 2 -177 4 -167 7 9 2 15 7 12 12
-3 4 -22 4 -42 -1 -52 -12 -51 -12 -47 19 2 15 1 19 -2 10 -3 -10 -9 -18 -14
-18 -5 0 -17 -3 -27 -6 -10 -3 -8 1 7 11 20 12 21 15 5 11 -11 -3 -32 -7 -48
-10 -48 -8 -67 -17 -61 -28 4 -6 1 -8 -7 -6 -8 3 -13 11 -11 17 1 8 -4 8 -18
-1 -13 -8 -16 -15 -8 -19 7 -4 15 -6 19 -3 4 2 14 -4 21 -15 7 -10 32 -22 56
-26 23 -4 48 -15 55 -24 6 -10 20 -17 30 -15 9 1 15 -2 11 -7 -3 -5 11 -9 30
-9 22 0 36 -5 36 -12 0 -8 14 -14 33 -15 93 -5 153 -16 165 -32 15 -18 21 -18
33 1 5 7 9 9 9 3 0 -5 21 -10 46 -9 28 0 52 -5 61 -14 10 -11 20 -12 36 -5 12
6 31 7 41 3 17 -6 18 -7 3 -13 -9 -3 -24 -4 -32 -1 -8 4 -15 2 -15 -4 0 -6 6
-12 13 -15 6 -2 -2 -11 -20 -20 -37 -19 -47 -21 -38 -7 10 16 -2 12 -21 -7
-16 -16 -38 -23 -76 -24 -10 0 -15 -6 -11 -15 6 -17 -9 -18 -26 -2 -10 11 -11
9 -5 -5 3 -10 3 -17 -2 -16 -5 1 -16 0 -24 -4 -21 -8 -71 -18 -97 -20 -13 -1
-23 -5 -23 -8 0 -4 -7 -10 -16 -13 -9 -4 -13 -2 -8 5 3 6 -5 4 -19 -6 -19 -12
-27 -13 -33 -4 -5 8 -3 9 6 4 8 -5 11 -4 6 3 -4 6 -14 8 -23 5 -10 -4 -14 -2
-10 4 7 11 -29 11 -40 -1 -5 -4 -3 -7 2 -6 21 5 36 0 30 -10 -4 -6 -11 -7 -17
-4 -7 4 -8 2 -4 -4 5 -9 13 -9 27 -2 27 15 24 6 -14 -34 -25 -26 -39 -34 -55
-29 -13 3 -22 1 -22 -5 0 -12 56 -26 81 -21 8 2 24 -2 36 -9 18 -10 24 -9 32
5 6 11 11 13 11 5 0 -7 5 -10 10 -7 6 3 13 -1 16 -9 3 -9 11 -16 16 -16 6 0 5
6 -2 15 -13 16 -11 18 43 29 21 5 27 3 27 -11 0 -15 2 -15 9 -3 6 8 7 19 5 25
-3 5 1 2 9 -7 13 -16 15 -16 35 3 12 11 22 15 22 9 0 -6 13 -4 31 6 21 10 29
11 23 3 -5 -9 -2 -10 12 -4 10 4 29 7 41 7 11 -1 47 7 79 18 43 15 60 17 68 9
8 -9 8 -10 -1 -5 -7 4 -20 3 -28 -1 -10 -6 8 -9 48 -9 56 0 63 2 65 20 1 15
-1 17 -7 7 -9 -14 -57 -19 -69 -7 -9 10 19 26 47 26 13 0 48 18 78 40 29 23
53 37 53 32 0 -5 16 -9 35 -9 21 0 31 4 23 8 -6 4 -15 6 -19 3 -4 -2 -10 3
-13 12 -9 24 -8 26 17 12 12 -7 25 -11 30 -10 4 1 7 -2 7 -7 0 -5 9 -7 20 -4
12 3 20 0 20 -7 0 -7 8 -9 19 -5 11 3 23 0 27 -6 4 -8 3 -9 -4 -5 -7 4 -12 1
-12 -8 0 -8 5 -18 10 -21 6 -4 8 -11 4 -16 -3 -5 -10 -7 -15 -4 -5 3 -6 -1 -3
-10 6 -14 8 -14 21 2 10 13 16 15 19 5 3 -6 11 -9 16 -6 7 4 8 2 4 -4 -4 -7
-2 -12 4 -12 6 0 8 -5 5 -10 -4 -6 -12 -4 -21 5 -19 19 -25 19 -18 0 6 -15 17
-19 43 -15 9 1 12 -4 7 -15 -4 -11 -2 -14 6 -9 8 5 9 2 5 -10 -5 -13 -1 -19
13 -23 11 -3 20 -10 20 -15 0 -5 5 -6 10 -3 6 4 10 3 9 -2 -4 -15 13 -43 22
-37 13 8 11 -10 -3 -25 -7 -8 -1 -6 13 3 24 15 27 15 32 1 4 -8 14 -15 24 -15
14 0 15 -2 4 -9 -10 -7 -7 -9 12 -8 17 1 22 6 16 13 -11 14 -1 24 23 24 16 0
17 -3 7 -22 -11 -21 -11 -22 4 -10 13 11 15 10 10 -9 -4 -15 -3 -20 5 -15 8 5
12 0 12 -13 0 -12 4 -21 10 -21 5 0 7 -6 4 -14 -3 -7 6 -37 20 -65 13 -28 20
-48 14 -45 -6 4 -8 1 -6 -7 3 -8 9 -13 14 -12 5 1 10 -11 11 -25 0 -15 5 -28
10 -29 5 -2 8 -18 6 -36 -2 -24 -1 -27 5 -13 7 16 9 17 14 4 4 -9 2 -20 -2
-24 -5 -5 -5 -15 1 -24 9 -13 10 -12 5 3 -8 26 1 20 17 -11 11 -24 11 -29 0
-29 -7 0 -13 5 -13 11 0 6 -5 4 -10 -4 -5 -8 -10 -19 -10 -25 0 -5 5 -3 10 5
6 9 10 11 10 3 0 -7 6 -10 13 -8 6 2 19 -11 28 -30 9 -19 11 -31 5 -28 -6 4
-6 0 1 -9 7 -8 10 -18 6 -22 -4 -4 -1 -4 8 -1 10 4 15 -1 16 -14 2 -30 34 -92
44 -85 5 3 6 -3 2 -12 -4 -12 -3 -15 5 -10 7 4 12 2 12 -3 0 -6 -4 -11 -8 -11
-5 0 -9 -7 -9 -15 0 -11 4 -12 10 -6 15 15 37 -6 30 -27 -4 -15 -3 -15 7 -2 8
11 13 12 16 3 4 -9 11 -9 30 -1 13 6 24 15 24 19 0 5 12 4 26 -2 21 -7 31 -6
45 7 18 16 20 16 41 -2 12 -10 18 -14 14 -7 -5 8 5 8 30 -3 33 -14 38 -14 55
2 10 9 19 23 19 31 0 7 8 13 18 13 13 0 14 2 3 9 -11 7 -11 15 -2 41 6 18 8
36 5 41 -3 5 0 9 5 9 6 0 11 5 11 11 0 5 -4 7 -10 4 -6 -4 -7 2 -1 17 5 13 8
34 7 48 -1 14 3 31 8 39 8 10 8 15 0 18 -8 3 -9 15 -4 39 5 19 4 37 -1 40 -5
3 -6 10 -3 16 10 16 13 88 3 82 -5 -3 -9 0 -9 5 0 6 4 11 10 11 6 0 6 9 2 23
-11 29 -7 66 7 80 8 8 11 6 11 -9 0 -14 2 -16 9 -5 6 9 11 10 15 2 4 -6 18
-11 31 -11 13 0 30 -7 38 -15 8 -8 18 -11 23 -7 5 4 2 -1 -5 -10 -12 -17 -14
-16 -30 2 -12 15 -20 17 -31 10 -12 -9 -12 -10 5 -8 13 2 20 -2 19 -12 -1 -9
7 -17 17 -17 11 -1 19 3 19 9 0 5 7 7 16 4 10 -4 13 -2 8 6 -5 7 -3 8 5 4 7
-5 16 -18 21 -30 7 -17 9 -17 9 -3 1 23 21 22 21 -2 0 -18 19 -32 43 -30 7 0
2 4 -10 9 -13 5 -23 14 -23 20 0 6 19 -2 43 -16 41 -26 72 -60 72 -78 0 -5 7
-11 15 -13 12 -4 12 -3 2 5 -11 7 -9 10 6 14 14 4 19 2 16 -7 -3 -8 2 -12 12
-12 9 1 19 -4 21 -11 3 -6 -1 -10 -9 -9 -7 2 -10 2 -5 0 4 -3 5 -9 2 -14 -4
-5 2 -6 11 -2 13 5 15 3 9 -7 -5 -9 -4 -11 4 -6 6 4 9 12 6 17 -3 5 1 6 9 3 9
-3 16 -12 16 -20 0 -8 9 -14 21 -14 11 0 17 -4 14 -10 -3 -5 5 -12 18 -16 14
-3 34 -17 46 -30 12 -14 25 -22 30 -19 5 2 12 -2 15 -11 5 -12 2 -15 -11 -10
-13 5 -15 4 -7 -4 6 -6 23 -12 38 -14 14 -1 29 -6 34 -11 4 -4 1 -5 -7 0 -9 5
-12 4 -7 -3 4 -6 13 -9 21 -5 18 6 19 -1 5 -27 -8 -16 -8 -18 5 -14 8 3 12 10
9 15 -3 5 7 9 23 8 25 0 26 -1 8 -9 -18 -8 -17 -9 8 -9 16 -1 26 -5 22 -11 -3
-5 -13 -6 -23 -3 -13 5 -14 3 -5 -7 9 -9 19 -10 43 -2 17 6 29 8 26 4 -3 -5 8
-13 25 -19 18 -7 27 -8 23 -1 -4 6 3 5 15 -1 17 -10 22 -9 27 4 3 8 11 12 18
8 6 -4 5 1 -3 10 -7 9 -18 14 -24 10 -5 -3 -7 -1 -4 4 7 10 -20 28 -35 25 -5
-1 -8 5 -8 14 0 8 -4 13 -9 9 -5 -3 -11 5 -13 17 -2 12 -9 23 -16 24 -7 1 -8
0 -2 -3 5 -2 10 -14 10 -26 0 -20 0 -21 -16 -1 -8 10 -12 13 -8 5 5 -9 3 -12
-5 -7 -6 4 -9 12 -6 17 4 5 -4 8 -17 6 -14 -1 -23 3 -23 13 -1 8 -6 14 -12 13
-6 -1 -22 8 -35 20 -14 13 -31 21 -39 18 -12 -4 -12 -2 0 12 11 14 11 18 -2
23 -9 3 -21 3 -26 0 -12 -8 -33 28 -23 39 4 3 0 5 -8 3 -8 -1 -14 3 -12 10 1
6 -2 12 -8 12 -15 0 -12 -11 8 -34 17 -20 16 -20 -3 -6 -11 8 -25 20 -31 25
-6 6 -21 17 -33 25 -11 8 -21 20 -21 27 0 7 -5 13 -11 13 -5 0 -7 -6 -3 -12 5
-8 1 -8 -12 2 -30 22 -30 24 -9 16 13 -5 17 -4 10 3 -5 5 -19 11 -30 13 -11 1
-23 10 -26 18 -3 8 -10 15 -15 16 -29 3 -44 18 -40 40 3 13 2 23 -2 22 -4 -1
-17 3 -28 10 -18 10 -24 9 -35 -6 -12 -15 -12 -16 2 -5 12 10 19 10 34 -1 17
-12 17 -13 1 -19 -25 -10 -59 11 -52 30 5 13 4 14 -9 3 -9 -7 -15 -8 -15 -2 0
6 -14 13 -31 17 -24 5 -30 11 -26 26 3 10 2 18 -2 17 -17 -2 -31 3 -31 11 0 5
10 7 23 5 12 -2 16 -2 9 2 -6 3 -9 10 -6 16 4 5 -3 5 -16 -2 -12 -6 -24 -9
-27 -6 -8 8 -31 -18 -25 -29 3 -5 -2 -4 -11 4 -17 13 -16 15 5 38 21 22 21 23
3 17 -11 -5 -26 -14 -33 -21 -9 -9 -19 -10 -31 -3 -10 5 -21 6 -25 2 -4 -3 -4
2 0 13 7 18 6 19 -10 6 -15 -13 -17 -12 -12 12 3 15 0 27 -5 27 -5 0 -9 -7 -9
-15 0 -8 -4 -15 -9 -15 -14 0 -21 28 -8 33 6 2 3 6 -7 10 -9 4 -15 3 -11 -2 3
-5 1 -12 -5 -16 -5 -3 -10 -1 -10 6 0 8 -5 7 -17 -2 -14 -12 -16 -12 -8 0 6
10 4 13 -6 9 -8 -3 -23 0 -34 8 -10 8 -28 14 -39 14 -18 0 -19 2 -6 11 12 8
12 9 -5 8 -26 -4 -65 10 -65 22 0 5 -5 9 -11 9 -5 0 -7 -5 -3 -12 5 -7 3 -8
-5 -4 -7 5 -10 14 -7 21 3 9 -3 12 -25 8 -16 -2 -30 0 -30 6 -3 26 -4 30 -11
37 -5 4 -8 0 -8 -9 0 -21 -9 -21 -48 -1 -18 8 -32 22 -32 30 0 8 -4 14 -10 14
-13 0 -7 37 8 52 7 7 12 17 12 23 0 14 46 13 61 -2 8 -8 5 -14 -14 -25 -20
-10 -24 -17 -17 -28 8 -13 10 -12 10 3 0 9 4 17 10 17 5 0 6 -8 3 -17 -6 -15
-5 -16 9 -3 9 8 14 18 12 22 -2 4 0 9 6 13 5 3 10 1 10 -4 0 -6 5 -11 11 -11
5 0 7 5 4 10 -3 6 1 10 10 10 9 0 13 -4 10 -10 -6 -9 8 -14 28 -11 5 1 6 -3 3
-8 -3 -5 -15 -7 -26 -4 -22 6 -29 -20 -8 -33 7 -5 9 -2 6 8 -5 12 3 15 42 14
27 -1 52 -4 56 -8 4 -5 17 -8 28 -8 18 0 19 -2 6 -11 -12 -9 -11 -10 6 -6 16
3 26 -2 34 -19 7 -13 17 -21 22 -18 4 3 6 10 3 15 -8 12 27 -2 43 -18 8 -7 18
-10 23 -7 6 3 13 -3 16 -15 3 -12 9 -21 14 -21 5 0 6 7 2 17 -5 12 0 11 24 -6
16 -12 38 -24 49 -26 30 -6 30 -6 4 -16 -24 -8 -24 -8 4 -5 30 4 123 -38 119
-54 -1 -4 9 -7 22 -5 13 1 22 -2 19 -7 -3 -5 0 -9 7 -7 24 3 40 -1 36 -8 -3
-5 6 -9 20 -9 21 -2 63 -33 63 -47 0 -2 -12 -2 -26 1 -19 3 -25 1 -20 -6 4 -7
17 -10 29 -8 12 3 26 5 30 5 5 1 5 7 2 14 -4 6 3 1 16 -13 12 -14 26 -24 32
-22 5 2 25 -4 44 -13 18 -9 38 -13 43 -10 6 3 13 -1 16 -9 3 -9 12 -16 20 -16
8 0 14 -5 14 -12 0 -6 3 -8 7 -5 3 4 16 1 27 -6 12 -8 34 -17 49 -21 17 -4 25
-11 21 -18 -5 -7 0 -9 14 -6 14 4 20 2 15 -5 -4 -6 0 -8 10 -4 10 3 17 2 17
-3 0 -5 9 -12 20 -15 11 -4 18 -10 16 -14 -2 -3 11 -6 30 -6 24 0 36 5 40 17
7 24 -5 60 -17 52 -6 -3 -9 0 -8 7 1 8 -1 22 -6 33 -5 11 -3 21 4 26 9 5 8 9
-4 14 -24 9 -32 7 -15 -4 12 -8 10 -10 -9 -10 -24 0 -24 0 -5 -15 10 -8 14
-15 7 -15 -8 0 -10 -7 -6 -17 5 -13 0 -12 -28 7 -19 13 -36 25 -39 28 -3 2 4
10 14 18 11 8 16 14 11 14 -5 0 -16 -7 -25 -15 -17 -16 -55 -10 -44 6 3 5 -2
6 -10 3 -14 -5 -64 20 -77 39 -4 5 -20 10 -37 10 -17 1 -28 5 -26 9 3 5 -1 8
-8 8 -10 0 -9 3 2 10 9 6 17 5 22 -3 5 -8 8 -6 8 6 0 20 -2 20 -33 6 -19 -9
-31 -7 -56 5 -17 9 -31 14 -31 10 0 -4 -7 -1 -15 6 -11 9 -12 15 -2 25 7 7 15
11 18 9 3 -2 6 3 6 11 0 18 -13 20 -20 3 -4 -10 -8 -9 -17 2 -10 13 -11 13 -7
-2 3 -9 -1 -19 -9 -22 -9 -3 -12 -1 -9 4 6 10 -7 14 -31 11 -6 -1 -17 6 -24
14 -7 8 -19 15 -26 15 -8 0 -14 5 -14 12 0 6 -3 8 -7 5 -3 -4 -18 3 -31 15
-14 13 -22 17 -18 11 11 -20 -3 -16 -50 15 -44 27 -55 42 -31 42 8 0 7 4 -3
10 -13 9 -13 11 0 20 12 7 12 12 2 22 -15 15 -17 238 -2 238 6 0 6 9 0 26 -9
22 -8 25 5 20 13 -5 13 -3 1 17 -10 15 -16 76 -20 207 -8 202 -13 305 -16 305
-6 0 -5 47 2 51 4 3 8 11 8 17 0 8 -3 8 -9 -1 -16 -26 -20 27 -5 64 8 20 10
34 4 34 -5 0 -10 -10 -10 -22 -1 -20 -2 -21 -10 -6 -6 9 -11 28 -12 42 -1 14
-5 26 -8 26 -15 0 -38 59 -36 93 3 36 -6 48 -19 27 -3 -5 -2 -10 2 -10 5 0 9
-9 9 -20 0 -25 -14 -12 -19 19 -2 12 -9 26 -17 31 -7 4 -11 17 -7 29 3 12 2
19 -1 17 -4 -2 -13 2 -20 10 -7 8 -10 14 -6 14 4 0 -2 9 -14 20 -26 25 -29 38
-4 19 15 -12 16 -12 5 2 -7 9 -10 19 -6 23 4 4 0 4 -9 1 -9 -4 -19 -1 -24 6
-4 7 -3 10 4 5 6 -3 13 -2 17 4 3 5 1 10 -5 10 -6 0 -8 5 -5 10 3 6 0 10 -8
10 -8 0 -22 10 -33 22 -10 12 -14 19 -9 16 6 -3 10 5 10 18 0 19 -2 21 -10 11
-9 -12 -12 -12 -23 -1 -10 11 -10 14 2 14 9 0 20 9 26 20 7 14 7 20 0 20 -5 0
-10 -6 -10 -13 0 -21 -28 -16 -47 7 -17 20 -17 20 0 7 12 -10 17 -10 17 -2 0
7 4 10 9 7 5 -4 7 3 4 14 -3 11 -13 20 -22 19 -10 0 -11 -2 -3 -6 6 -2 12 -9
12 -14 0 -6 -9 -5 -21 1 -11 7 -18 18 -15 25 3 8 1 17 -4 20 -5 3 -1 21 10 40
l19 34 -27 -4 c-15 -2 -28 -4 -29 -4 -1 -1 2 -12 7 -25 8 -21 6 -24 -10 -23
-13 1 -16 5 -9 13 6 8 4 13 -8 16 -10 3 -27 20 -37 38 -10 18 -14 30 -8 26 6
-3 9 1 8 10 -3 18 -34 39 -43 30 -3 -3 5 -10 18 -15 13 -5 18 -10 10 -10 -8
-1 -29 14 -47 31 -31 31 -32 34 -16 52 9 11 12 16 5 13 -6 -4 -15 -3 -18 3 -5
8 -11 8 -20 0 -16 -14 -25 7 -25 61 0 27 4 38 11 33 8 -4 8 0 0 15 -10 17 -9
20 4 15 19 -8 21 35 3 55 -10 11 -10 13 -1 7 9 -5 12 0 10 16 -1 17 3 22 15
20 9 -1 19 2 23 8 3 5 26 10 50 10 24 0 50 3 59 6 19 7 20 33 3 54 -24 31
-106 92 -116 86 -5 -3 -11 -1 -13 4 -2 6 -19 13 -38 16 -19 3 -39 10 -45 16
-7 8 -5 8 5 3 10 -6 8 -1 -4 13 -10 12 -23 19 -27 16 -5 -3 -6 1 -3 9 3 8 0
18 -7 23 -7 4 -10 3 -6 -3 3 -5 0 -10 -7 -10 -8 0 -12 11 -11 28 1 15 -1 28
-4 27 -20 -2 -23 4 -7 15 16 12 16 13 -3 13 -11 0 -18 -3 -15 -7 2 -4 -6 -9
-18 -12 -19 -5 -20 -8 -7 -24 12 -16 12 -17 -2 -6 -9 7 -20 9 -24 5 -5 -4 -5
-1 -1 6 5 8 3 13 -5 11 -26 -3 -40 1 -34 10 3 6 -12 8 -37 6 -32 -3 -39 -1
-28 6 11 8 7 9 -15 4 -16 -4 -43 -9 -60 -11 -24 -3 -27 -1 -12 7 9 6 22 7 29
3 7 -4 8 -3 4 4 -9 15 -15 15 -44 -1z m268 -47 c6 -11 9 -20 7 -20 -2 0 -12 9
-22 20 -10 11 -13 20 -7 20 6 0 16 -9 22 -20z m-276 -32 c-5 -8 -2 -9 11 -4
11 4 22 2 27 -6 6 -10 8 -10 8 2 0 20 99 15 107 -6 3 -9 10 -11 21 -5 38 19
61 -27 25 -48 -10 -6 -12 -11 -5 -11 6 0 12 -7 12 -15 0 -9 -6 -12 -17 -8 -15
5 -16 3 -5 -8 14 -15 16 -39 3 -39 -5 0 -12 8 -14 18 -3 12 -5 13 -6 2 0 -8 4
-22 9 -30 8 -12 12 -12 18 -2 7 10 11 10 21 -2 10 -12 10 -22 0 -49 -14 -39
-6 -73 13 -61 10 6 10 4 0 -8 -11 -14 -10 -16 9 -11 16 5 20 3 14 -6 -6 -10
-3 -11 14 -2 11 7 21 9 21 5 0 -3 12 1 26 11 15 9 23 12 20 6 -4 -6 -2 -11 4
-11 7 0 8 -6 2 -17 -5 -10 -8 -26 -7 -35 4 -22 -11 -33 -21 -17 -4 7 -3 9 4 5
13 -8 10 12 -6 39 -10 18 -11 18 -12 3 0 -10 5 -18 11 -18 5 0 7 -5 3 -11 -4
-7 -8 -28 -9 -48 -1 -20 0 -30 2 -23 3 6 8 12 12 12 9 0 6 -48 -4 -57 -4 -5
-5 -3 -1 4 3 6 2 14 -3 17 -5 4 -8 -2 -6 -11 2 -10 4 -22 4 -26 1 -5 6 -5 12
-1 8 4 8 0 0 -15 -7 -12 -9 -26 -6 -31 7 -11 -21 -80 -32 -80 -13 0 -14 51 -2
66 6 8 16 11 23 7 6 -3 6 0 -2 8 -10 11 -15 11 -28 -2 -8 -9 -16 -24 -18 -33
-1 -9 -6 -15 -12 -14 -5 2 -8 7 -6 11 1 5 -2 6 -7 3 -5 -3 -8 -14 -6 -24 2 -9
4 -19 4 -21 1 -3 6 0 13 7 19 19 33 14 16 -5 -9 -10 -13 -23 -11 -30 3 -8 -3
-11 -18 -8 -12 2 -19 2 -16 -1 3 -4 0 -12 -6 -19 -9 -10 -15 -10 -26 -1 -12 9
-13 8 -6 -3 6 -11 4 -13 -8 -8 -9 3 -17 2 -19 -2 -2 -4 -22 -11 -46 -15 -34
-5 -42 -4 -36 6 5 10 4 10 -6 1 -8 -7 -20 -9 -35 -3 -13 5 -26 6 -30 2 -11
-11 -29 -9 -43 5 -7 7 -23 13 -34 13 -18 0 -19 2 -7 16 11 14 9 15 -20 11 -17
-3 -39 -11 -47 -18 -12 -10 -13 -9 -8 7 4 10 4 16 0 12 -5 -4 -9 -24 -11 -45
-2 -21 -1 -32 2 -25 2 6 9 12 14 12 6 0 7 -5 3 -12 -4 -7 -3 -8 5 -4 6 4 18 1
26 -7 8 -8 34 -18 59 -21 25 -4 48 -12 52 -17 4 -6 22 -8 46 -4 33 6 39 5 32
-6 -7 -12 -5 -12 9 0 13 10 24 11 49 2 31 -10 32 -10 13 5 -19 16 -19 16 8 12
15 -3 27 -1 27 3 0 5 6 9 13 9 7 0 29 9 48 19 33 18 36 18 35 3 0 -9 4 -16 11
-15 7 2 17 -6 23 -17 6 -11 8 -20 6 -20 -3 0 6 -11 19 -24 14 -14 22 -31 19
-39 -3 -8 0 -18 5 -22 6 -3 9 -9 7 -13 -2 -4 9 -7 24 -7 16 -1 26 3 24 7 -3 4
-1 8 3 8 5 0 9 11 9 25 0 14 -3 25 -7 25 -12 0 -35 83 -34 118 2 37 2 38 -16
15 -12 -14 -12 -16 0 -8 10 6 12 4 6 -5 -6 -10 -11 -9 -22 6 -16 22 -12 39 10
38 9 -1 17 9 20 25 5 24 4 24 -9 6 -8 -10 -14 -14 -14 -7 0 6 9 17 20 25 11 8
17 16 14 19 -3 3 0 9 7 14 7 4 10 3 6 -3 -4 -6 0 -14 8 -17 17 -6 62 -76 57
-89 -1 -5 2 -6 7 -3 5 4 13 1 17 -5 4 -6 -1 -16 -10 -21 -22 -12 -20 -31 4
-46 24 -15 26 -9 3 13 -14 14 -14 18 -2 26 19 12 32 11 24 -1 -7 -12 12 -50
26 -50 10 0 35 -20 36 -30 4 -23 33 -69 56 -88 15 -13 25 -28 22 -32 -3 -5 1
-11 7 -14 7 -4 2 -4 -12 -2 -24 5 -24 4 -6 -9 16 -12 17 -17 6 -30 -7 -8 -10
-18 -6 -22 3 -3 6 -1 6 5 0 7 7 12 15 12 8 0 15 -4 15 -9 0 -5 -7 -11 -15 -15
-8 -3 -15 -11 -14 -18 0 -10 2 -10 6 0 2 6 13 12 24 12 13 0 17 5 13 18 -5 14
-4 14 4 2 6 -8 8 -18 5 -23 -2 -4 5 -17 18 -28 12 -10 17 -19 10 -19 -8 0 -7
-5 4 -16 12 -12 13 -19 4 -30 -6 -8 -15 -12 -19 -9 -4 2 -4 -10 -1 -27 4 -17
13 -34 21 -36 12 -4 13 -2 3 9 -20 20 -15 47 10 60 12 6 19 8 14 4 -4 -5 0
-19 8 -32 10 -15 11 -23 4 -23 -6 0 -1 -9 12 -21 13 -11 17 -17 9 -13 -10 5
-9 0 4 -14 11 -12 16 -22 11 -22 -4 0 -2 -7 5 -15 7 -8 8 -15 3 -15 -6 0 -15
10 -20 23 -9 19 -10 15 -8 -21 1 -24 6 -46 10 -50 4 -4 5 2 3 13 -2 13 3 20
17 22 11 1 14 0 8 -3 -18 -8 -16 -24 1 -24 8 0 18 -4 21 -10 3 -6 -1 -7 -9 -4
-9 3 -16 1 -16 -5 0 -6 6 -11 14 -11 19 0 27 -137 9 -152 -15 -12 -18 -42 -3
-33 5 3 7 0 4 -8 -6 -16 -36 -18 -46 -3 -5 8 -8 7 -8 -1 0 -7 -7 -10 -15 -7
-8 4 -15 1 -15 -6 0 -6 5 -8 12 -4 7 5 8 3 3 -7 -7 -11 -6 -12 6 -2 9 8 20 9
29 3 17 -11 16 -11 -22 -16 -16 -1 -28 2 -28 8 0 5 -7 8 -14 5 -18 -7 -61 57
-52 78 7 19 -13 30 -27 16 -9 -9 -8 -11 3 -6 11 4 15 -2 15 -19 l0 -24 -21 22
c-11 11 -18 26 -15 31 3 6 -3 4 -12 -4 -11 -9 -17 -10 -17 -2 0 6 -5 11 -11
11 -16 0 -2 -69 19 -89 8 -9 19 -16 23 -16 4 0 11 -4 16 -9 5 -5 3 -6 -4 -2
-7 4 -13 3 -13 -2 0 -12 35 -43 42 -37 3 3 18 -7 33 -21 16 -15 31 -22 33 -16
1 5 12 8 22 5 11 -3 31 2 45 11 19 12 25 13 26 4 0 -10 2 -10 6 0 9 22 21 12
18 -15 -2 -16 2 -34 9 -42 8 -12 8 -13 -1 -7 -7 4 -13 2 -13 -3 0 -6 6 -11 13
-11 8 0 7 -4 -3 -10 -11 -8 -12 -12 -3 -18 13 -8 16 -44 11 -130 -2 -28 -1
-52 2 -52 3 0 5 -24 5 -54 0 -30 -2 -53 -5 -51 -5 3 -4 -66 3 -196 2 -44 1
-45 -25 -44 -15 1 -25 -2 -22 -7 3 -4 0 -8 -5 -8 -6 0 -11 5 -11 11 0 5 -5 7
-10 4 -6 -4 -18 -1 -27 7 -9 7 -18 12 -20 11 -10 -8 -23 -1 -17 8 4 8 9 7 15
-2 5 -8 9 -9 9 -3 0 18 -12 24 -30 14 -13 -7 -17 -5 -17 8 0 9 5 21 11 25 6 5
2 6 -10 2 -17 -4 -23 0 -29 22 -5 15 -8 31 -7 36 1 4 -3 7 -9 7 -6 0 -9 7 -5
15 3 8 0 14 -7 12 -7 -1 -11 9 -10 26 2 23 0 27 -11 18 -10 -9 -15 -8 -20 4
-3 9 -2 13 4 10 6 -3 10 -1 10 4 0 6 -4 11 -8 11 -5 0 -15 19 -21 43 -7 23
-17 47 -23 54 -5 7 -7 21 -3 33 5 15 2 20 -12 21 -11 0 -13 3 -5 6 10 4 10 9
-4 24 -9 10 -14 25 -10 34 3 9 2 13 -4 10 -10 -6 -14 7 -11 33 1 8 -5 23 -15
33 -9 10 -12 19 -7 19 15 0 11 31 -7 53 -16 19 -17 22 -19 68 -1 19 -5 28 -12
23 -8 -4 -8 0 0 15 8 15 9 21 1 21 -6 0 -8 5 -5 10 3 6 2 10 -2 10 -5 0 -10
21 -11 47 -1 26 -7 50 -14 54 -16 10 -17 39 -3 58 7 11 7 13 -2 7 -7 -4 -13
-2 -13 3 0 6 3 11 8 11 4 0 8 12 9 27 1 17 -2 22 -7 13 -10 -16 -19 14 -20 65
-1 96 -9 158 -20 168 -10 10 -11 9 -5 -3 8 -13 6 -13 -8 -2 -19 16 -41 6 -33
-14 3 -7 0 -16 -6 -20 -7 -4 -8 -3 -4 4 4 7 2 12 -4 12 -7 0 -10 7 -6 15 8 22
-2 18 -15 -6 -9 -17 -8 -20 2 -14 9 6 11 3 6 -8 -3 -10 -2 -17 3 -17 13 0 13
-87 0 -95 -6 -4 -8 -10 -5 -14 6 -11 -30 -53 -39 -44 -3 3 -6 1 -6 -5 0 -6 -7
-18 -16 -27 -13 -12 -19 -13 -30 -4 -12 10 -13 9 -8 -6 5 -12 4 -16 -4 -11
-14 8 -25 -28 -17 -54 5 -16 12 -19 33 -13 15 3 33 14 40 24 6 10 26 20 42 24
17 4 28 10 25 15 -3 5 0 12 6 16 9 5 10 -1 5 -20 -4 -18 -3 -25 3 -21 6 3 8 0
5 -8 -3 -8 -1 -18 5 -22 17 -10 13 -55 -4 -55 -8 0 -15 -5 -15 -11 0 -6 7 -8
15 -5 9 3 15 1 14 -7 -2 -21 13 -57 22 -52 4 3 6 -3 4 -14 -2 -10 3 -31 11
-46 8 -15 14 -35 13 -44 0 -11 -3 -9 -9 6 -6 13 -17 21 -29 20 -27 -2 -27 -17
-1 -17 15 0 20 -7 20 -25 0 -14 3 -25 8 -25 4 0 15 -14 24 -30 l17 -31 -29 -5
c-31 -7 -31 -22 1 -42 17 -11 20 -11 14 0 -3 7 0 5 8 -4 8 -10 18 -14 22 -10
5 4 5 -1 2 -11 -4 -10 0 -29 8 -41 14 -21 14 -24 0 -29 -8 -4 -15 -12 -14 -19
0 -10 2 -10 6 0 6 14 33 16 33 2 0 -5 -6 -10 -12 -11 -10 0 -10 -2 0 -6 6 -2
12 -11 12 -19 0 -9 5 -12 12 -8 7 4 8 3 4 -4 -4 -6 0 -25 9 -41 16 -32 21 -55
6 -32 -7 10 -9 7 -8 -12 2 -18 5 -23 14 -15 9 7 14 2 19 -19 4 -15 12 -31 18
-35 7 -5 4 -8 -6 -8 -10 0 -18 6 -18 13 -1 7 -8 3 -18 -9 -24 -28 -96 -46
-119 -29 -9 7 -23 11 -30 8 -7 -3 -19 -1 -26 4 -6 6 -30 11 -52 11 -25 1 -46
8 -55 19 -16 20 -50 19 -50 0 0 -7 -5 -6 -11 3 -8 12 -12 12 -16 2 -4 -10 -9
-9 -20 5 -8 10 -12 12 -8 6 3 -7 1 -13 -5 -13 -6 0 -13 7 -16 15 -4 8 -9 13
-13 10 -4 -2 -8 2 -8 10 0 8 4 12 8 10 10 -7 5 22 -6 32 -4 4 -5 3 -2 -3 4 -7
0 -14 -8 -17 -9 -4 -12 -1 -8 9 4 10 0 12 -11 8 -9 -3 -16 -1 -16 6 0 6 -4 9
-9 6 -5 -3 -14 1 -21 9 -7 8 -9 15 -5 15 4 0 -9 17 -29 38 -20 20 -36 42 -37
47 0 6 -8 19 -18 30 -24 27 -31 49 -20 66 7 11 9 11 9 1 0 -8 5 -10 12 -6 7 5
9 2 5 -9 -4 -11 -2 -14 8 -11 7 3 23 -4 34 -15 16 -16 20 -17 23 -4 2 12 8 10
29 -9 19 -18 31 -23 43 -16 9 5 16 5 16 1 0 -4 11 -8 25 -8 14 0 25 3 25 7 0
4 14 3 30 -2 17 -5 28 -5 25 -1 -2 5 12 7 33 6 20 -1 37 -3 37 -4 0 -8 56 -8
60 0 9 14 27 11 19 -3 -4 -7 -3 -9 1 -5 5 4 10 14 11 22 2 12 -2 13 -19 3 -12
-7 -33 -13 -45 -13 -21 -1 -22 0 -7 11 9 7 24 10 33 7 11 -5 13 -3 7 7 -5 9
-4 11 4 6 6 -4 17 -3 24 2 16 12 47 7 59 -10 8 -10 9 -9 5 4 -3 9 -1 19 6 22
7 2 1 4 -13 3 -16 -1 -25 3 -26 13 -1 8 -2 21 -3 28 0 6 -4 11 -8 10 -9 -3
-13 5 -13 25 0 8 4 7 10 -3 7 -11 10 -11 10 -2 0 7 5 10 12 6 7 -4 8 -3 4 5
-4 6 -12 9 -17 6 -5 -4 -9 14 -9 41 0 58 -8 54 -14 -7 -7 -69 -15 -81 -47 -77
-20 3 -29 0 -29 -9 0 -8 -13 -13 -32 -14 -18 0 -42 -4 -53 -8 -11 -5 -27 -5
-36 0 -9 4 -38 9 -65 11 -27 1 -54 6 -61 11 -7 5 -16 6 -22 3 -5 -3 -12 1 -15
10 -3 9 -12 14 -20 11 -19 -8 -62 39 -44 47 7 3 3 3 -9 0 -17 -4 -22 -1 -20
16 1 22 16 28 18 8 0 -9 2 -9 6 1 5 11 7 11 14 0 7 -10 8 -8 6 8 -2 12 -7 26
-12 30 -4 5 -5 3 -1 -4 3 -6 2 -14 -3 -18 -5 -3 -14 3 -20 12 -10 17 -10 17
-11 1 0 -10 -6 -18 -12 -18 -9 0 -8 -4 2 -10 8 -5 11 -10 5 -10 -15 1 -45 26
-45 38 0 6 -5 12 -12 14 -6 2 -12 19 -13 38 -2 34 -17 50 -30 31 -3 -6 0 -9 7
-8 7 2 10 2 5 0 -4 -3 -5 -9 -1 -14 11 -18 -6 -8 -30 17 -14 16 -22 33 -18 42
3 9 1 13 -5 9 -11 -7 -33 33 -33 59 0 8 -4 12 -10 9 -5 -3 -10 -2 -10 4 0 5
-6 16 -14 24 -9 9 -11 19 -5 28 7 11 9 10 9 -4 0 -11 7 -18 18 -16 31 3 43 -1
37 -11 -3 -5 -1 -10 4 -10 6 0 11 5 11 11 0 5 5 7 11 3 8 -4 3 -12 -12 -21
-24 -13 -24 -13 6 -7 23 4 26 3 15 -5 -11 -8 -11 -11 -2 -11 7 0 15 6 18 14 6
15 21 16 42 2 20 -12 38 9 23 27 -6 8 -9 23 -5 33 3 11 2 15 -3 8 -4 -6 -18
-7 -33 -3 -21 6 -22 7 -5 9 l20 1 -20 8 c-11 5 -23 7 -27 4 -5 -2 -8 0 -8 6 0
5 -9 8 -21 6 -17 -3 -19 -1 -9 10 15 18 -6 31 -25 15 -15 -12 -31 3 -20 19 3
6 -3 14 -12 20 -10 6 -13 11 -8 11 12 0 15 40 3 40 -4 0 -8 -6 -8 -14 0 -8 -3
-21 -6 -30 -4 -11 0 -16 12 -17 12 0 14 -3 6 -6 -8 -3 -22 4 -33 16 -17 18
-18 22 -5 27 9 3 16 10 16 15 0 5 -9 4 -20 -3 -16 -10 -22 -9 -40 11 -22 27
-27 55 -7 49 6 -3 12 -10 12 -16 0 -20 11 -21 12 -1 2 24 -22 36 -41 19 -12
-9 -17 -7 -27 12 -7 13 -12 29 -10 37 1 8 -2 10 -11 5 -10 -6 -9 -3 1 10 13
15 12 19 -4 34 -18 16 -18 16 -6 -1 8 -9 12 -20 9 -23 -10 -9 -40 68 -34 89 3
12 -1 29 -11 39 -14 16 -14 18 1 24 22 8 21 28 -1 20 -17 -6 -17 -5 0 8 9 7
17 19 17 27 0 11 -2 11 -10 -1 -7 -10 -9 4 -7 45 1 33 6 63 11 66 5 4 10 19
11 34 2 15 12 36 22 48 13 14 14 18 3 13 -8 -4 -6 0 5 9 11 9 19 21 17 26 -1
6 2 8 8 4 13 -8 50 12 50 28 0 7 14 24 32 39 28 23 29 26 11 21 -25 -6 -32 11
-8 21 8 3 14 13 14 23 -1 17 -2 17 -6 1 -6 -24 -22 -23 -20 0 2 26 36 25 46 0
l8 -22 5 22 c4 13 2 20 -6 19 -6 -1 -10 8 -8 23 2 22 1 23 -8 7 -6 -9 -16 -15
-21 -11 -6 3 -6 10 -1 17 5 7 8 20 7 29 -2 11 2 15 11 11 8 -3 14 -1 14 5 0 6
-4 12 -10 14 -5 2 -6 14 -3 28 l7 25 7 -25 7 -25 1 28 c1 15 -3 27 -8 27 -5 0
-5 14 1 33 6 17 13 38 14 45 2 8 9 10 16 6 10 -6 10 -5 1 7 -10 13 -8 21 17
44 16 15 27 33 23 38 -3 6 -2 8 3 5 12 -6 54 38 45 48 -3 4 0 4 7 0 7 -4 15
-1 18 8 3 9 14 16 24 16 11 0 22 5 25 11 4 6 13 8 21 5 8 -3 13 -1 11 4 -1 5
12 18 28 29 36 24 38 24 29 9z m264 -54 c12 -8 22 -22 22 -30 0 -8 4 -13 10
-9 12 8 8 -48 -5 -57 -6 -5 -6 -8 2 -8 6 0 15 5 19 11 4 8 9 7 15 -2 6 -10 9
-10 9 -2 0 6 -4 15 -10 18 -5 3 -10 11 -10 17 0 7 4 7 13 0 11 -10 27 -14 87
-26 18 -3 27 -36 10 -36 -6 0 -18 -6 -25 -14 -8 -7 -24 -12 -37 -11 -13 1 -29
3 -36 4 -7 0 -10 6 -7 11 5 8 12 7 23 -1 13 -10 13 -9 -1 7 -15 16 -19 17 -27
4 -5 -9 -5 -19 2 -27 11 -14 9 -15 -34 -17 -15 -1 -25 0 -23 3 3 2 -3 13 -12
24 -17 19 -17 19 7 13 14 -3 19 -3 13 0 -7 3 -13 13 -13 22 0 14 -2 15 -9 3
-8 -12 -12 -12 -25 -2 -18 15 -16 96 2 96 6 0 14 4 19 9 5 5 3 6 -4 2 -7 -4
-13 -2 -13 3 0 15 12 14 38 -5z m302 -154 c0 -5 -5 -10 -11 -10 -5 0 -7 5 -4
10 3 6 8 10 11 10 2 0 4 -4 4 -10z m-1020 -355 c0 -1 -10 -10 -22 -21 -14 -12
-18 -13 -10 -3 6 9 10 18 7 21 -3 2 2 5 10 5 8 0 15 -1 15 -2z m720 -45 c0 -5
-5 -10 -11 -10 -5 0 -7 5 -4 10 3 6 8 10 11 10 2 0 4 -4 4 -10z m338 -61 c-3
-8 -7 -3 -11 10 -4 17 -3 21 5 13 5 -5 8 -16 6 -23z m-3 -39 c3 -6 -1 -7 -9
-4 -18 7 -21 14 -7 14 6 0 13 -4 16 -10z m-75 -15 c7 -9 8 -15 2 -15 -5 0 -12
7 -16 15 -3 8 -4 15 -2 15 2 0 9 -7 16 -15z m-935 -524 c-2 -4 5 -22 15 -39
11 -18 15 -34 10 -37 -10 -6 -30 36 -33 68 -1 9 -5 17 -9 17 -4 0 -8 5 -8 11
0 8 5 8 15 -1 8 -7 13 -15 10 -19z m40 -112 c-3 -5 3 -19 14 -31 18 -19 26
-45 22 -70 0 -5 2 -7 7 -7 19 3 32 -2 32 -13 0 -6 11 -26 25 -44 14 -18 21
-35 16 -39 -6 -3 -14 2 -19 12 -9 14 -10 13 -9 -9 2 -22 5 -24 24 -17 23 8 43
-6 47 -34 1 -8 7 -21 13 -28 6 -8 9 -22 8 -31 -2 -10 1 -18 6 -18 6 0 7 -5 3
-11 -4 -8 -13 -4 -25 12 -10 14 -14 26 -8 30 6 3 3 12 -7 20 -11 9 -15 9 -10
2 4 -7 2 -22 -4 -33 -9 -16 -8 -18 5 -14 17 7 19 -4 6 -25 -6 -9 -11 -10 -15
-2 -4 6 -12 9 -17 6 -5 -4 -5 4 1 19 8 21 7 24 -8 20 -13 -4 -14 -3 -4 4 11 7
42 57 42 67 0 2 -8 2 -17 0 -10 -2 -24 -4 -32 -4 -11 -1 -10 -5 5 -17 13 -10
15 -17 7 -20 -27 -11 -29 -8 -32 41 0 14 -6 24 -13 23 -13 -3 -13 9 -3 70 2
12 -1 22 -7 22 -5 0 -8 -7 -5 -15 4 -8 2 -17 -2 -19 -5 -3 -15 12 -24 34 -10
26 -11 38 -4 33 8 -5 8 -2 0 9 -7 8 -10 18 -7 21 4 3 -3 18 -15 33 -20 25 -20
51 0 38 5 -3 7 -10 4 -15z m-8 -205 c-3 -3 3 -22 14 -41 11 -20 18 -38 14 -41
-3 -3 -5 1 -5 9 0 11 -2 11 -10 -1 -7 -12 -10 -8 -10 14 0 16 -7 38 -17 48
-15 17 -15 18 2 18 10 0 16 -3 12 -6z m198 -149 c5 0 14 -10 20 -21 6 -12 17
-30 25 -40 11 -12 11 -15 2 -10 -8 5 -21 1 -33 -10 -20 -18 -27 -6 -7 14 10
10 8 16 -7 30 -17 15 -18 15 -6 0 7 -9 9 -23 5 -29 -8 -13 -24 17 -31 59 -3
18 -1 22 9 16 7 -5 17 -9 23 -9z m639 6 c3 -5 -1 -11 -9 -15 -8 -3 -17 0 -21
6 -4 7 -3 8 4 4 7 -4 12 -2 12 3 0 13 7 14 14 2z m-670 -74 c-4 -14 -3 -17 6
-12 9 5 11 4 6 -4 -10 -15 -26 -4 -26 17 0 10 -8 29 -17 42 l-16 25 26 -24
c19 -17 25 -31 21 -44z m127 46 c13 -16 12 -17 -3 -4 -10 7 -18 15 -18 17 0 8
8 3 21 -13z m-28 -106 c4 -11 12 -15 18 -11 8 4 9 3 5 -4 -4 -7 -2 -12 4 -12
6 0 9 -4 6 -9 -3 -5 1 -12 9 -15 8 -3 14 -11 13 -18 -2 -7 2 -12 9 -13 6 0 15
-4 20 -9 5 -5 3 -6 -4 -2 -7 4 -13 3 -13 -2 0 -6 7 -13 16 -16 9 -4 14 -13 10
-22 -3 -9 -2 -12 5 -8 6 3 19 -3 30 -14 18 -20 18 -21 -1 -19 -11 1 -20 5 -20
9 0 4 -7 8 -15 8 -8 0 -15 5 -15 10 0 6 -5 10 -11 10 -5 0 -8 -4 -4 -9 3 -6
-4 -9 -15 -8 -11 1 -20 6 -20 12 0 5 -5 3 -11 -5 -8 -12 -9 -10 -4 7 5 18 3
21 -14 18 -12 -2 -21 1 -21 7 0 6 -7 19 -16 29 -10 11 -12 19 -5 24 6 3 11 1
11 -5 0 -6 9 -20 20 -32 11 -12 20 -16 20 -10 0 7 0 15 0 20 0 4 -4 7 -9 7
-21 0 -23 16 -5 37 10 12 13 18 7 14 -8 -4 -13 -1 -13 9 0 9 -5 13 -11 10 -6
-4 -8 -14 -4 -23 3 -9 3 -13 -1 -9 -4 4 -13 2 -19 -3 -9 -8 -12 -4 -12 15 0
13 3 22 8 20 4 -3 7 4 6 14 -1 19 -2 19 -19 4 -11 -10 -18 -12 -18 -5 0 7 0
15 0 20 0 4 4 7 10 7 5 0 14 5 21 12 13 13 41 -8 52 -40z m-666 -123 c-3 -3
-12 -4 -19 -1 -8 3 -5 6 6 6 11 1 17 -2 13 -5z m185 -6 c9 -6 3 -7 -17 -3 -29
6 -29 6 -10 -9 l20 -16 -20 3 c-11 1 -26 6 -33 11 -7 4 -31 9 -52 10 -22 1
-42 5 -46 8 -10 10 143 6 158 -4z m25 -20 c-3 -8 -6 -5 -6 6 -1 11 2 17 5 13
3 -3 4 -12 1 -19z m33 2 c0 -5 -2 -10 -4 -10 -3 0 -8 5 -11 10 -3 6 -1 10 4
10 6 0 11 -4 11 -10z m40 6 c0 -2 3 -12 6 -21 6 -15 4 -15 -15 -4 -25 16 -27
29 -6 29 8 0 15 -2 15 -4z m40 -18 c0 -10 2 -10 8 -1 5 7 13 9 21 3 8 -4 20
-6 28 -3 7 3 13 0 13 -6 0 -7 10 -9 25 -7 14 3 23 1 20 -4 -3 -5 -1 -11 5 -15
5 -3 10 -1 10 6 0 15 61 4 71 -13 6 -9 11 -9 22 0 9 8 24 9 45 3 17 -5 33 -7
36 -3 3 3 6 0 6 -6 0 -7 5 -12 11 -12 5 0 7 5 3 11 -3 6 5 3 20 -6 33 -22 33
-25 -4 -21 -16 2 -27 -1 -24 -6 3 -5 13 -7 21 -6 9 2 18 -2 20 -8 5 -15 -28
-27 -40 -15 -5 5 -16 7 -23 4 -8 -3 -14 0 -14 6 0 6 6 11 13 12 10 0 10 2 0 6
-7 2 -13 9 -13 14 0 6 5 7 12 3 6 -4 8 -3 5 3 -4 6 -20 13 -36 15 -22 3 -28 1
-26 -11 2 -9 4 -20 4 -24 1 -5 10 -6 21 -2 15 5 18 3 14 -9 -5 -12 -10 -13
-25 -5 -10 5 -19 14 -19 20 0 6 -4 7 -10 4 -5 -3 -10 -1 -10 5 0 6 -5 8 -10 5
-6 -4 -8 -12 -4 -18 3 -7 -1 -4 -10 7 -8 10 -19 15 -25 11 -6 -3 -11 -1 -11 5
0 7 -6 10 -14 7 -8 -3 -20 1 -26 9 -14 16 -35 19 -25 4 10 -16 -11 -12 -25 5
-7 8 -18 15 -24 14 -33 -4 -56 3 -56 16 0 8 5 15 10 15 6 0 10 -6 10 -12z
m1045 -72 c0 0 8 -18 18 -39 21 -45 21 -53 4 -38 -8 6 -18 7 -22 3 -5 -4 -5 1
-1 12 5 16 2 18 -24 14 -16 -3 -28 -2 -25 1 3 2 -7 10 -22 17 l-28 12 28 1
c17 1 27 6 27 17 0 11 6 14 23 8 12 -3 22 -7 22 -8z m-575 -7 c0 7 5 9 11 6 6
-5 4 -12 -8 -20 -10 -8 -19 -9 -21 -4 -2 5 -11 9 -20 9 -12 0 -7 -6 12 -19 41
-27 44 -53 5 -39 -16 5 -29 14 -29 20 0 5 6 6 13 2 6 -4 4 2 -6 13 -18 20 -18
22 0 31 12 7 22 7 30 0 9 -7 13 -7 13 1z m178 -18 c7 -1 10 -6 7 -12 -4 -6
-13 -8 -21 -5 -8 3 -14 1 -14 -4 0 -14 -18 -12 -23 3 -2 7 -3 5 -3 -3 1 -11
11 -14 34 -12 26 3 31 0 26 -13 -6 -13 -8 -14 -15 -3 -13 19 -12 -8 0 -31 8
-13 6 -18 -5 -18 -8 0 -13 6 -10 12 2 7 0 18 -5 26 -8 11 -9 10 -7 -5 2 -13
-3 -20 -19 -21 -13 -1 -19 3 -16 8 4 6 0 8 -10 4 -16 -6 -34 10 -32 28 1 17
24 51 25 37 0 -11 3 -11 14 1 8 7 25 13 38 11 12 -1 29 -3 36 -3z m-525 -34
c-4 -6 0 -8 9 -4 12 4 14 1 11 -13 -4 -16 -8 -17 -23 -7 -10 6 -17 14 -14 18
2 4 0 10 -6 14 -5 3 -10 -2 -10 -11 0 -10 -3 -15 -6 -11 -3 3 -15 -4 -26 -15
-27 -27 -17 -33 14 -9 15 12 29 16 38 11 10 -6 3 -13 -25 -24 -47 -20 -55 -20
-55 -1 0 8 -4 15 -10 15 -5 0 -7 -7 -4 -15 4 -8 1 -15 -6 -15 -6 0 -8 5 -5 10
3 6 1 10 -4 10 -14 0 -14 -13 1 -28 7 -7 8 -12 3 -13 -6 0 -19 -2 -30 -4 -11
-2 -29 -5 -40 -7 -11 -2 -23 -7 -27 -13 -5 -6 -11 -5 -17 3 -6 11 -11 10 -25
-3 -9 -9 -16 -13 -16 -8 0 15 35 40 49 35 8 -3 11 0 7 7 -5 7 1 11 13 11 33 0
36 -1 33 -12 -1 -5 2 -6 8 -3 6 4 9 14 6 22 -3 8 -2 12 3 9 4 -3 17 3 28 14
12 10 24 16 27 13 3 -4 6 1 6 9 0 8 14 19 33 25 37 11 70 6 60 -10z m852 13
c3 -6 -1 -7 -9 -4 -18 7 -21 14 -7 14 6 0 13 -4 16 -10z m-194 -9 c10 -2 6
-31 -4 -31 -5 0 -6 -7 -3 -16 4 -10 2 -13 -6 -8 -8 5 -9 2 -5 -9 7 -20 -13
-23 -31 -5 -7 7 -12 8 -12 2 0 -5 6 -16 13 -23 10 -10 9 -11 -5 -6 -22 9 -24
54 -3 56 8 1 21 2 27 3 7 0 13 8 14 16 1 10 -1 10 -3 2 -4 -10 -8 -10 -19 -1
-27 22 -17 27 37 20z m264 -81 c3 -5 1 -10 -4 -10 -6 0 -11 5 -11 10 0 6 2 10
4 10 3 0 8 -4 11 -10z m-650 -20 c3 -5 2 -10 -4 -10 -5 0 -13 5 -16 10 -3 6
-2 10 4 10 5 0 13 -4 16 -10z m97 -5 c4 -5 2 -12 -3 -16 -7 -4 -4 -9 5 -12 9
-4 15 -3 15 1 -4 26 3 30 38 22 36 -8 82 -51 63 -58 -6 -2 -10 -11 -10 -20 0
-15 2 -15 10 -2 8 12 10 10 10 -8 0 -19 -4 -22 -21 -17 -15 5 -19 4 -15 -4 12
-19 -19 -12 -40 8 -33 34 -78 93 -80 107 -2 15 17 14 28 -1z m273 5 c3 -5 1
-10 -4 -10 -6 0 -11 5 -11 10 0 6 2 10 4 10 3 0 8 -4 11 -10z m-927 -25 c-2
-1 -16 -5 -33 -9 l-30 -6 25 14 c14 8 28 12 33 9 5 -3 7 -6 5 -8z m1501 -8 c0
-8 -3 -7 -6 2 -4 11 -7 11 -14 0 -4 -7 -11 -10 -16 -6 -9 9 17 28 29 21 4 -3
8 -11 7 -17z m-579 -60 c46 1 57 -1 40 -7 l-25 -8 26 -1 c22 -1 66 -31 45 -31
-3 0 1 -17 10 -39 8 -21 14 -42 12 -47 -1 -5 4 -20 11 -33 7 -12 11 -32 8 -42
-5 -20 16 -73 25 -64 2 3 5 -1 5 -8 0 -6 4 -25 8 -41 6 -23 5 -27 -5 -21 -8 5
-11 4 -7 -2 4 -6 0 -13 -8 -17 -8 -3 -15 -13 -15 -23 0 -15 3 -14 19 6 25 32
40 19 36 -30 -3 -32 -1 -39 10 -35 9 3 12 0 8 -9 -4 -11 -10 -12 -26 -4 -20 9
-20 9 -4 -4 9 -8 17 -20 18 -28 0 -8 5 -3 10 11 10 23 11 24 21 7 5 -11 7 -32
4 -48 -3 -17 -1 -29 5 -29 6 0 8 4 4 9 -3 5 -1 12 5 16 5 3 10 -1 10 -10 0
-15 1 -15 16 -1 8 9 21 16 27 16 8 0 8 -3 -1 -9 -11 -7 -11 -9 1 -14 7 -3 19
-2 26 3 10 5 9 9 -3 13 -11 4 -15 15 -12 31 3 18 1 23 -10 19 -8 -3 -14 0 -14
6 0 6 5 11 10 11 6 0 10 4 10 10 0 5 -6 7 -13 4 -17 -6 -34 32 -33 74 1 17 -3
32 -8 32 -4 0 -6 7 -3 14 4 11 1 13 -11 9 -9 -3 -14 -3 -10 2 4 4 3 17 -3 28
-9 15 -8 18 3 11 7 -4 4 2 -6 14 -11 12 -16 22 -11 22 4 0 2 6 -4 14 -9 10 -8
16 4 26 19 16 19 21 -1 46 -8 10 -13 14 -10 7 4 -6 2 -14 -4 -18 -5 -3 -10 1
-10 9 0 21 0 21 -10 56 -5 16 -6 30 -2 31 4 0 15 2 24 4 13 2 16 -3 14 -23 -2
-15 -1 -19 1 -9 2 9 13 17 24 17 23 0 24 -4 3 -35 -9 -14 -15 -26 -13 -26 2
-1 17 -2 32 -3 28 -2 28 -2 7 14 -11 9 -18 19 -14 23 11 11 26 8 19 -3 -3 -5
-1 -10 4 -10 6 0 11 5 11 10 0 6 5 10 11 10 6 0 9 -6 6 -14 -4 -9 0 -12 12 -9
10 2 25 -2 33 -11 9 -8 18 -13 21 -10 3 4 12 2 19 -2 7 -5 16 -9 20 -9 17 0
19 -15 2 -16 -10 0 -14 -3 -7 -5 7 -3 22 0 34 6 12 7 19 8 15 2 -3 -6 -2 -12
4 -14 17 -5 32 -318 18 -402 -4 -27 -8 -69 -10 -93 -1 -28 -7 -47 -16 -50 -11
-5 -11 -7 0 -14 7 -5 8 -9 2 -9 -6 0 -23 9 -38 21 -21 17 -26 27 -22 50 2 17
0 27 -5 23 -5 -3 -7 -10 -4 -15 11 -17 -2 -9 -21 13 -12 13 -13 18 -4 13 13
-8 13 -7 1 8 -22 27 -46 20 -69 -22 -12 -21 -19 -41 -16 -44 3 -3 1 -8 -5 -11
-5 -4 -13 -1 -17 5 -5 8 -3 9 7 4 12 -8 12 -6 0 8 -7 9 -18 14 -23 11 -6 -4
-6 -10 1 -17 14 -14 14 -37 0 -37 -5 0 -7 5 -4 10 3 6 0 10 -7 10 -7 0 -19 10
-27 23 -13 20 -13 21 1 9 13 -10 17 -10 22 3 3 9 2 14 -3 11 -4 -3 -16 3 -25
13 -11 13 -14 21 -7 26 14 8 14 35 1 35 -5 0 -10 -8 -10 -17 0 -12 -5 -9 -15
11 -19 36 -19 56 0 56 8 0 15 5 15 10 0 13 -17 13 -25 0 -12 -20 -36 10 -25
30 7 13 6 21 -2 26 -7 5 -8 3 -3 -6 5 -8 4 -11 -3 -6 -11 7 -7 31 10 53 12 15
0 55 -14 47 -7 -4 -6 -9 2 -14 9 -6 9 -14 -3 -35 l-14 -28 -7 37 c-4 20 -11
34 -15 31 -5 -2 -7 9 -6 25 2 22 -3 31 -17 36 -11 3 -17 12 -14 20 3 7 -4 34
-15 60 -17 37 -20 57 -14 99 6 48 4 53 -16 58 -16 4 -19 3 -10 -6 6 -6 11 -25
10 -41 0 -26 -2 -28 -8 -11 -5 11 -7 23 -4 28 2 4 0 7 -6 7 -5 0 -8 9 -6 19 2
11 -3 25 -10 31 -8 6 -11 18 -9 25 3 8 -1 24 -10 37 -9 12 -16 32 -15 43 1 16
2 16 8 -5 7 -24 11 -25 71 -23z m-6 12 c3 -3 -8 -5 -23 -4 -16 0 -27 3 -25 7
5 8 40 6 48 -3z m-1194 -49 c0 -5 -2 -10 -4 -10 -3 0 -8 5 -11 10 -3 6 -1 10
4 10 6 0 11 -4 11 -10z m1054 -12 c-3 -4 -15 -8 -27 -8 -15 0 -18 3 -9 8 17
11 43 11 36 0z m356 -128 c0 -5 -5 -10 -11 -10 -5 0 -7 5 -4 10 3 6 8 10 11
10 2 0 4 -4 4 -10z m463 -4 c9 -7 17 -19 16 -27 0 -10 -2 -11 -6 -1 -2 6 -11
12 -18 12 -7 0 -15 7 -19 15 -7 18 3 19 27 1z m-138 -25 c3 -5 2 -12 -3 -15
-5 -3 -9 1 -9 9 0 17 3 19 12 6z m790 -80 c3 -5 1 -12 -5 -16 -5 -3 -10 1 -10
9 0 18 6 21 15 7z m-441 -97 c5 -14 4 -15 -9 -4 -17 14 -19 20 -6 20 5 0 12
-7 15 -16z m-554 -359 c0 6 5 2 11 -8 13 -22 4 -36 -21 -34 -10 1 -16 5 -13
11 4 5 -2 7 -13 3 -18 -7 -18 -6 -1 7 9 7 17 19 17 27 0 11 2 11 10 -1 5 -8
10 -10 10 -5z"/>
<path d="M2307 4003 c-14 -13 -7 -23 16 -22 19 1 19 2 3 6 -15 4 -16 7 -5 14
8 5 9 9 3 9 -6 0 -14 -3 -17 -7z"/>
<path d="M2360 4000 c0 -5 10 -15 23 -21 22 -12 22 -12 3 10 -21 23 -26 26
-26 11z"/>
<path d="M2521 4001 c-7 -5 -10 -14 -7 -20 11 -17 22 -13 22 9 0 11 0 20 -1
20 0 0 -6 -4 -14 -9z"/>
<path d="M2485 3981 c5 -26 -22 -50 -31 -27 -4 11 -17 15 -43 14 -21 0 -43 2
-49 6 -8 5 -12 0 -12 -13 0 -14 -5 -19 -15 -15 -8 4 -12 10 -9 15 3 5 -4 9
-15 9 -22 0 -28 -14 -11 -25 6 -4 9 -28 7 -56 -2 -27 0 -52 5 -55 5 -3 7 -12
4 -20 -3 -7 -1 -16 4 -19 6 -4 10 -11 10 -16 0 -6 -4 -7 -10 -4 -18 11 -10 -7
12 -26 23 -21 63 -25 74 -8 3 6 19 9 35 7 15 -3 26 -1 24 3 -3 4 5 10 18 14
22 6 21 7 -6 17 l-27 10 22 18 c27 22 33 101 8 111 -12 6 -11 8 5 15 21 9 32
34 15 34 -5 0 -7 7 -4 15 4 8 1 15 -4 15 -6 0 -9 -9 -7 -19z m-90 -81 c-3 -5
-1 -10 5 -10 6 0 8 -5 5 -10 -5 -8 -12 -7 -23 2 -12 9 -12 7 2 -9 23 -27 36
-21 30 13 -3 16 -1 23 6 19 13 -8 13 -52 0 -60 -30 -18 -71 30 -47 54 14 14
30 14 22 1z m-41 -101 c14 -7 23 -15 20 -20 -2 -4 9 -4 25 1 34 9 74 3 65 -11
-3 -5 -16 -9 -29 -9 -13 0 -27 -4 -30 -10 -3 -5 -18 -10 -33 -9 -24 0 -25 1
-7 9 19 8 19 9 -3 9 -14 1 -22 6 -19 14 2 6 -3 17 -12 24 -20 16 -9 16 23 2z"/>
<path d="M2204 3936 c-19 -14 -19 -15 0 -33 18 -17 18 -17 7 5 -14 26 -4 29
15 5 13 -17 13 -17 14 0 0 9 -5 17 -11 17 -5 0 -7 5 -4 10 9 14 2 13 -21 -4z"/>
<path d="M2253 3885 c0 -14 4 -22 9 -19 6 4 14 0 19 -7 7 -11 9 -10 9 4 0 9
-4 17 -10 17 -5 0 -10 7 -10 15 0 8 -4 15 -9 15 -5 0 -8 -11 -8 -25z"/>
<path d="M2113 3848 c-19 -21 -20 -24 -5 -38 14 -13 15 -12 9 4 -9 23 2 43 14
25 6 -10 8 -7 6 9 0 12 -2 22 -2 22 -1 0 -11 -10 -22 -22z"/>
<path d="M2270 3830 c6 -11 15 -20 20 -20 6 0 2 9 -7 20 -10 11 -19 20 -21 20
-1 0 2 -9 8 -20z"/>
<path d="M2240 3821 c0 -10 19 -25 25 -20 1 2 -3 10 -11 17 -8 7 -14 8 -14 3z"/>
<path d="M2511 3814 c0 -11 3 -14 6 -6 3 7 2 16 -1 19 -3 4 -6 -2 -5 -13z"/>
<path d="M2531 3814 c0 -11 3 -14 6 -6 3 7 2 16 -1 19 -3 4 -6 -2 -5 -13z"/>
<path d="M2137 3809 c7 -7 15 -10 18 -7 3 3 -2 9 -12 12 -14 6 -15 5 -6 -5z"/>
<path d="M2275 3730 c-3 -5 -1 -10 4 -10 6 0 11 5 11 10 0 6 -2 10 -4 10 -3 0
-8 -4 -11 -10z"/>
<path d="M2498 3721 c-12 -14 -13 -22 -5 -31 9 -8 5 -9 -17 0 -16 6 -38 8 -49
4 -14 -4 -17 -3 -12 6 5 8 4 11 -2 7 -6 -4 -9 -22 -8 -40 3 -29 0 -35 -28 -46
-45 -19 -119 -22 -113 -5 7 17 -10 28 -20 13 -5 -8 -3 -9 6 -4 9 5 11 4 6 -4
-6 -9 -11 -9 -22 0 -10 8 -11 15 -4 24 8 9 8 15 0 20 -5 3 -10 11 -10 16 0 6
5 7 12 3 7 -4 8 -3 4 4 -4 6 -13 9 -22 5 -13 -5 -13 -7 1 -23 14 -16 11 -30
-6 -30 -7 0 -23 35 -24 55 0 13 -34 13 -60 1 -17 -8 -18 -7 -8 6 10 12 10 15
-1 15 -14 0 -16 -21 -3 -33 12 -12 8 -26 -5 -18 -7 4 3 -9 21 -29 19 -21 31
-37 27 -37 -5 0 -3 -6 3 -13 6 -8 9 -16 6 -19 -3 -2 2 -5 10 -5 8 0 11 5 7 11
-3 6 6 3 21 -6 14 -10 33 -18 40 -18 8 0 19 -10 26 -22 l12 -23 -5 23 c-5 27
14 30 21 3 3 -13 12 -18 24 -16 10 2 21 0 24 -6 8 -12 25 -12 25 2 0 5 -4 7
-10 4 -5 -3 -10 -1 -10 4 0 6 0 13 0 16 0 3 3 5 6 4 4 0 11 5 16 13 8 10 9 9
4 -4 -3 -10 0 -20 6 -24 7 -4 8 -3 4 4 -4 7 -2 12 4 12 6 0 9 4 6 9 -8 12 13
18 50 16 21 -2 31 2 31 11 0 8 -4 14 -9 14 -4 0 -8 -4 -8 -10 0 -5 -7 -10 -15
-10 -8 0 -15 5 -15 12 0 6 3 9 6 5 3 -3 15 3 27 14 11 10 28 19 38 19 9 0 22
7 29 15 7 8 17 12 23 8 6 -3 7 -1 3 6 -4 6 -11 9 -16 6 -4 -3 -10 -2 -13 2 -2
5 -2 2 0 -5 2 -8 -4 -12 -15 -10 -9 2 -15 11 -13 19 2 8 3 22 3 31 0 9 6 19
13 22 10 3 12 0 9 -12 -5 -13 -4 -14 4 -3 5 7 15 10 22 6 8 -5 7 0 -2 14 -16
26 -29 27 -50 2z m-48 -34 c0 -2 -9 -12 -21 -23 -15 -14 -20 -15 -17 -4 2 8
10 18 18 22 19 8 20 9 20 5z"/>
<path d="M2540 3680 c0 -5 5 -10 11 -10 5 0 7 5 4 10 -3 6 -8 10 -11 10 -2 0
-4 -4 -4 -10z"/>
<path d="M2295 3670 c-3 -6 5 -10 19 -10 14 0 28 5 31 10 3 6 -5 10 -19 10
-14 0 -28 -4 -31 -10z"/>
<path d="M2089 3648 c-7 -25 -7 -48 1 -48 5 0 9 11 8 25 -2 21 -6 32 -9 23z"/>
<path d="M2283 3624 c0 -6 9 -9 19 -6 27 7 29 17 4 17 -13 0 -23 -5 -23 -11z"/>
<path d="M2103 3593 c-7 -2 -13 -12 -13 -21 1 -16 1 -16 11 0 6 11 16 15 26
11 11 -4 14 -3 9 5 -8 13 -13 14 -33 5z"/>
<path d="M2565 3550 c-3 -5 -1 -10 4 -10 6 0 11 5 11 10 0 6 -2 10 -4 10 -3 0
-8 -4 -11 -10z"/>
<path d="M2308 3493 c7 -3 16 -2 19 1 4 3 -2 6 -13 5 -11 0 -14 -3 -6 -6z"/>
<path d="M2044 3446 c-12 -10 -16 -18 -9 -25 7 -6 16 -1 28 15 20 27 11 32
-19 10z"/>
<path d="M2734 3439 c1 -7 10 -13 19 -15 9 -1 15 2 11 7 -3 5 -9 7 -14 4 -4
-3 -11 0 -13 5 -3 6 -4 5 -3 -1z"/>
<path d="M2276 3393 c-3 -3 3 -13 15 -21 17 -11 23 -12 32 -2 9 10 9 11 0 6
-6 -3 -18 0 -26 8 -8 8 -17 12 -21 9z"/>
<path d="M2421 3392 c-1 -10 -11 -12 -33 -8 -27 5 -29 4 -13 -4 18 -9 17 -10
-7 -7 -15 2 -25 1 -23 -3 2 -3 35 -6 72 -6 37 0 56 1 41 3 -15 3 -29 12 -31
21 -3 9 -5 11 -6 4z"/>
<path d="M1900 3343 c0 -5 5 -15 10 -23 7 -12 9 -10 7 8 -1 19 -17 33 -17 15z"/>
<path d="M2760 3310 c18 -12 30 -13 30 -2 0 4 -10 9 -22 9 -18 2 -20 0 -8 -7z"/>
<path d="M2740 3290 c19 -13 30 -13 30 0 0 6 -10 10 -22 10 -19 0 -20 -2 -8
-10z"/>
<path d="M1892 3270 c0 -14 2 -19 5 -12 2 6 2 18 0 25 -3 6 -5 1 -5 -13z"/>
<path d="M2130 3275 c7 -8 16 -12 21 -9 13 8 1 24 -18 24 -13 0 -13 -3 -3 -15z"/>
<path d="M2200 3280 c0 -5 5 -10 10 -10 6 0 10 5 10 10 0 6 -4 10 -10 10 -5 0
-10 -4 -10 -10z"/>
<path d="M2240 3280 c-13 -8 -12 -10 3 -10 10 0 16 -4 13 -9 -3 -5 1 -12 10
-15 8 -3 12 -2 9 3 -3 6 3 15 12 21 17 11 17 11 -1 5 -11 -3 -22 -1 -25 4 -4
6 -12 6 -21 1z"/>
<path d="M2790 3280 c0 -6 4 -9 9 -6 5 4 12 1 14 -4 3 -6 4 -5 3 2 -3 15 -26
23 -26 8z"/>
<path d="M2510 3260 c-9 -6 -10 -10 -3 -10 6 0 15 5 18 10 8 12 4 12 -15 0z"/>
<path d="M2745 3260 c3 -5 8 -10 11 -10 2 0 4 5 4 10 0 6 -5 10 -11 10 -5 0
-7 -4 -4 -10z"/>
<path d="M2778 3259 c17 -18 15 -45 -4 -75 -10 -14 -13 -24 -8 -23 5 1 17 -1
27 -6 25 -11 34 2 15 21 -12 12 -14 24 -8 45 7 24 5 31 -13 40 -18 9 -20 9 -9
-2z"/>
<path d="M2855 3260 c21 -9 7 -15 -25 -10 -10 1 -9 -3 5 -13 17 -13 21 -13 31
1 15 20 9 32 -14 31 -14 0 -13 -2 3 -9z"/>
<path d="M2170 3250 c0 -5 5 -10 11 -10 5 0 7 5 4 10 -3 6 -8 10 -11 10 -2 0
-4 -4 -4 -10z"/>
<path d="M2616 3241 c-6 -10 3 -41 11 -41 8 0 32 34 33 45 0 6 -5 3 -10 -5 -6
-10 -10 -11 -10 -2 0 14 -16 16 -24 3z"/>
<path d="M2885 3220 c-3 -6 1 -7 9 -4 18 7 21 14 7 14 -6 0 -13 -4 -16 -10z"/>
<path d="M2560 3169 c0 -5 5 -7 10 -4 6 3 10 8 10 11 0 2 -4 4 -10 4 -5 0 -10
-5 -10 -11z"/>
<path d="M2900 3124 c0 -16 28 -50 35 -42 4 4 -2 17 -14 29 -12 13 -21 18 -21
13z"/>
<path d="M1875 3100 c3 -5 8 -10 11 -10 2 0 4 5 4 10 0 6 -5 10 -11 10 -5 0
-7 -4 -4 -10z"/>
<path d="M2670 3059 c0 -5 5 -7 10 -4 6 3 10 8 10 11 0 2 -4 4 -10 4 -5 0 -10
-5 -10 -11z"/>
<path d="M1885 3040 c-3 -5 -1 -10 4 -10 6 0 11 5 11 10 0 6 -2 10 -4 10 -3 0
-8 -4 -11 -10z"/>
<path d="M2779 2976 c6 -7 7 -17 3 -21 -4 -5 -1 -5 6 -1 7 4 12 1 12 -9 0 -9
-4 -13 -10 -10 -5 3 -10 1 -10 -4 0 -11 32 -15 42 -5 12 11 -4 39 -28 51 -21
10 -23 9 -15 -1z"/>
<path d="M2647 2913 c3 -7 6 -13 8 -13 2 0 5 6 8 13 3 8 -1 14 -8 14 -7 0 -11
-6 -8 -14z"/>
<path d="M3077 2915 c-4 -8 -2 -17 3 -20 6 -4 10 3 10 14 0 25 -6 27 -13 6z"/>
<path d="M1936 2907 c3 -10 9 -15 12 -12 3 3 0 11 -7 18 -10 9 -11 8 -5 -6z"/>
<path d="M2580 2880 c0 -5 5 -10 10 -10 6 0 10 5 10 10 0 6 -4 10 -10 10 -5 0
-10 -4 -10 -10z"/>
<path d="M2045 2870 c-3 -5 -2 -10 4 -10 5 0 13 5 16 10 3 6 2 10 -4 10 -5 0
-13 -4 -16 -10z"/>
<path d="M3040 2861 c0 -10 19 -25 25 -20 1 2 -3 10 -11 17 -8 7 -14 8 -14 3z"/>
<path d="M2630 2836 c0 -8 6 -16 14 -19 10 -4 12 0 9 14 -6 22 -23 26 -23 5z"/>
<path d="M2562 2815 c0 -16 2 -22 5 -12 2 9 2 23 0 30 -3 6 -5 -1 -5 -18z"/>
<path d="M3040 2769 c0 -5 5 -7 10 -4 6 3 10 8 10 11 0 2 -4 4 -10 4 -5 0 -10
-5 -10 -11z"/>
<path d="M2146 2748 c3 -5 10 -6 15 -3 13 9 11 12 -6 12 -8 0 -12 -4 -9 -9z"/>
<path d="M2224 2752 c4 -7 -3 -10 -20 -9 -15 1 -29 -4 -31 -10 -3 -7 0 -13 7
-13 6 0 8 5 5 10 -3 6 0 10 9 10 8 0 16 -5 18 -11 2 -7 8 -6 16 4 10 12 10 17
1 23 -7 4 -9 3 -5 -4z"/>
<path d="M2664 2692 c4 -3 14 -7 22 -8 9 -1 13 0 10 4 -4 3 -14 7 -22 8 -9 1
-13 0 -10 -4z"/>
<path d="M2821 2674 c0 -11 3 -14 6 -6 3 7 2 16 -1 19 -3 4 -6 -2 -5 -13z"/>
<path d="M2620 2656 c0 -7 10 -16 23 -20 37 -10 41 -7 22 14 -21 23 -45 26
-45 6z"/>
<path d="M2126 2595 c19 -14 19 -14 -1 -15 l-20 -1 20 -8 c24 -10 31 -7 46 20
9 19 9 19 -10 10 -13 -7 -22 -8 -26 -1 -3 5 -11 10 -18 10 -6 0 -2 -7 9 -15z"/>
<path d="M3132 2580 c0 -14 2 -19 5 -12 2 6 2 18 0 25 -3 6 -5 1 -5 -13z"/>
<path d="M3156 2564 c-4 -14 -5 -28 -3 -31 3 -2 8 8 11 23 4 14 5 28 3 31 -3
2 -8 -8 -11 -23z"/>
<path d="M2145 2539 c-4 -6 -5 -12 -2 -15 2 -3 7 2 10 11 7 17 1 20 -8 4z"/>
<path d="M2219 2513 c-1 -4 -1 -11 0 -15 0 -5 -4 -8 -11 -8 -6 0 -3 -7 8 -16
17 -14 17 -15 1 -10 -11 4 -16 2 -12 -5 12 -18 29 -4 30 25 2 23 -13 50 -16
29z"/>
<path d="M2963 2467 c0 -8 6 -14 14 -14 9 0 10 4 2 14 -6 7 -12 13 -14 13 -1
0 -2 -6 -2 -13z"/>
<path d="M2230 2430 c0 -5 5 -10 11 -10 5 0 7 5 4 10 -3 6 -8 10 -11 10 -2 0
-4 -4 -4 -10z"/>
<path d="M3047 2415 c3 -8 9 -12 14 -9 12 7 11 11 -5 17 -10 4 -13 1 -9 -8z"/>
<path d="M3170 2410 c0 -6 7 -10 15 -10 8 0 15 2 15 4 0 2 -7 6 -15 10 -8 3
-15 1 -15 -4z"/>
<path d="M3102 2393 c-10 -4 -9 -9 5 -19 17 -13 17 -14 -2 -8 -18 5 -18 4 -3
-5 13 -9 27 -7 58 5 22 9 39 19 36 21 -2 3 -14 0 -26 -7 -23 -12 -64 -4 -55
11 7 10 6 10 -13 2z"/>
<path d="M3055 2380 c3 -5 11 -10 16 -10 6 0 7 5 4 10 -3 6 -11 10 -16 10 -6
0 -7 -4 -4 -10z"/>
<path d="M2776 2357 c3 -10 9 -15 12 -12 3 3 0 11 -7 18 -10 9 -11 8 -5 -6z"/>
<path d="M2333 2344 c0 -7 4 -11 9 -8 5 3 16 0 24 -7 18 -15 32 -3 16 13 -16
16 -49 17 -49 2z"/>
<path d="M2450 2350 c-9 -6 -10 -10 -3 -10 6 0 15 5 18 10 8 12 4 12 -15 0z"/>
<path d="M2660 2350 c0 -5 5 -10 10 -10 6 0 10 5 10 10 0 6 -4 10 -10 10 -5 0
-10 -4 -10 -10z"/>
<path d="M2408 2313 c7 -3 16 -2 19 1 4 3 -2 6 -13 5 -11 0 -14 -3 -6 -6z"/>
<path d="M2941 2244 c0 -11 3 -14 6 -6 3 7 2 16 -1 19 -3 4 -6 -2 -5 -13z"/>
<path d="M2746 2232 c-3 -6 2 -16 13 -21 25 -14 31 -14 31 1 0 6 -3 8 -7 5 -3
-4 -11 1 -18 10 -8 11 -14 12 -19 5z"/>
<path d="M2329 2208 c5 -13 9 -27 10 -33 1 -5 13 -9 26 -8 17 1 22 -3 18 -13
-3 -7 -10 -11 -16 -7 -6 4 -7 1 -2 -7 6 -10 11 -9 22 5 21 29 16 37 -19 31
-30 -5 -31 -5 -10 6 20 10 32 31 15 26 -5 -1 -18 3 -30 10 -21 12 -22 11 -14
-10z"/>
<path d="M3200 2205 c0 -8 4 -15 10 -15 5 0 7 7 4 15 -4 8 -8 15 -10 15 -2 0
-4 -7 -4 -15z"/>
<path d="M3205 2170 c-3 -5 -1 -10 4 -10 6 0 11 5 11 10 0 6 -2 10 -4 10 -3 0
-8 -4 -11 -10z"/>
<path d="M2958 2139 c2 -16 8 -29 13 -29 14 0 10 47 -4 53 -10 4 -12 -3 -9
-24z"/>
<path d="M2800 2150 c0 -5 5 -10 10 -10 6 0 10 5 10 10 0 6 -4 10 -10 10 -5 0
-10 -4 -10 -10z"/>
<path d="M2618 2143 c6 -2 18 -2 25 0 6 3 1 5 -13 5 -14 0 -19 -2 -12 -5z"/>
<path d="M2401 2106 c-8 -10 -9 -16 -1 -21 5 -3 10 -3 10 1 0 3 7 1 15 -6 12
-10 16 -9 21 4 5 13 9 14 20 5 8 -6 14 -7 14 -3 0 5 -9 15 -20 22 -11 7 -19 9
-18 5 3 -8 -5 -13 -23 -13 -5 0 -7 5 -4 10 9 15 -1 12 -14 -4z"/>
<path d="M2490 2029 c0 -5 6 -10 13 -11 42 -5 66 -4 62 3 -3 4 -15 5 -28 2
-16 -3 -18 -2 -8 5 10 7 6 10 -13 10 -14 0 -26 -4 -26 -9z"/>
<path d="M3025 2029 c-4 -6 -5 -12 -2 -15 2 -3 7 2 10 11 7 17 1 20 -8 4z"/>
<path d="M2626 1997 c3 -10 9 -15 12 -12 3 3 0 11 -7 18 -10 9 -11 8 -5 -6z"/>
<path d="M3150 1840 c0 -5 6 -10 14 -10 8 0 18 5 21 10 3 6 -3 10 -14 10 -12
0 -21 -4 -21 -10z"/>
<path d="M2263 2086 c-20 -23 1 -40 33 -28 16 6 23 11 15 11 -8 1 -19 7 -25
15 -9 12 -13 12 -23 2z m22 -16 c3 -5 1 -10 -4 -10 -6 0 -11 5 -11 10 0 6 2
10 4 10 3 0 8 -4 11 -10z"/>
<path d="M2040 1990 c0 -5 5 -10 11 -10 5 0 7 5 4 10 -3 6 -8 10 -11 10 -2 0
-4 -4 -4 -10z"/>
<path d="M2900 1940 c0 -11 4 -20 9 -20 5 0 7 9 4 20 -3 11 -7 20 -9 20 -2 0
-4 -9 -4 -20z"/>
<path d="M2443 1881 c0 -11 5 -18 9 -15 4 3 5 11 1 19 -7 21 -12 19 -10 -4z"/>
<path d="M2470 1881 c0 -6 4 -13 10 -16 6 -3 7 1 4 9 -7 18 -14 21 -14 7z"/>
<path d="M1820 1820 c-9 -6 -10 -10 -3 -10 6 0 15 5 18 10 8 12 4 12 -15 0z"/>
<path d="M2420 1765 c0 -8 -5 -15 -12 -15 -6 0 -9 -2 -7 -5 3 -2 18 0 35 4 16
5 22 10 14 10 -13 1 -13 2 0 11 12 8 11 10 -7 10 -14 0 -23 -6 -23 -15z"/>
<path d="M2444 1718 c-5 -7 -3 -8 6 -3 10 6 12 4 7 -8 -4 -10 -2 -14 7 -11 16
6 17 34 0 34 -7 0 -16 -5 -20 -12z"/>
<path d="M2615 1671 c4 -14 2 -21 -7 -21 -10 0 -9 -3 2 -9 8 -6 17 -8 21 -5 9
5 -1 43 -13 50 -6 4 -8 -2 -3 -15z"/>
<path d="M2700 1670 c12 -8 12 -10 -5 -10 -17 0 -17 -2 -5 -10 10 -6 11 -10 3
-10 -7 0 -13 -5 -13 -11 0 -8 4 -8 15 1 8 6 20 8 27 4 10 -6 9 -3 -1 9 -11 14
-11 17 0 17 11 0 11 2 -1 10 -8 5 -19 10 -25 10 -5 0 -3 -5 5 -10z"/>
<path d="M2735 1590 c-4 -6 -11 -8 -16 -5 -5 4 -9 0 -8 -7 1 -19 17 -55 18
-40 2 22 3 27 12 45 10 18 5 24 -6 7z"/>
<path d="M2920 1532 c0 -7 72 -33 78 -27 4 4 -58 35 -70 35 -4 0 -8 -3 -8 -8z"/>
<path d="M2757 1513 c-4 -3 -7 -11 -7 -17 0 -6 5 -5 12 2 6 6 9 14 7 17 -3 3
-9 2 -12 -2z"/>
<path d="M3052 1508 c10 -6 8 -8 -4 -8 -10 0 -18 -4 -18 -10 0 -14 27 -12 33
3 4 9 8 9 15 -2 7 -9 12 -10 16 -2 4 6 1 11 -6 11 -11 0 -11 2 0 8 8 6 2 9
-18 9 -20 0 -26 -3 -18 -9z"/>
<path d="M2711 1497 c-1 -10 -8 -20 -16 -23 -17 -7 -19 -33 -4 -54 9 -12 10
-12 5 4 -4 10 1 30 9 43 9 13 14 30 11 36 -2 7 -5 4 -5 -6z"/>
<path d="M2756 1450 c4 -14 7 -31 7 -37 0 -7 4 -13 9 -13 13 0 8 34 -8 55 -16
19 -16 19 -8 -5z"/>
<path d="M2716 1383 c-6 -14 -5 -15 5 -6 7 7 10 15 7 18 -3 3 -9 -2 -12 -12z"/>
<path d="M2920 1395 c0 -5 5 -17 10 -25 5 -8 10 -10 10 -5 0 6 -5 17 -10 25
-5 8 -10 11 -10 5z"/>
<path d="M2917 1343 c-4 -3 -7 -11 -7 -17 0 -6 5 -5 12 2 6 6 9 14 7 17 -3 3
-9 2 -12 -2z"/>
<path d="M2933 1323 c-16 -34 -16 -46 -2 -41 10 3 25 68 16 68 -1 0 -8 -12
-14 -27z"/>
<path d="M2853 1073 c-15 -5 -17 -23 -4 -23 5 0 11 7 15 15 3 8 4 15 3 14 -1
0 -8 -3 -14 -6z"/>
<path d="M3065 990 c-8 -13 5 -13 25 0 13 8 13 10 -2 10 -9 0 -20 -4 -23 -10z"/>
<path d="M2966 938 c3 -5 10 -6 15 -3 13 9 11 12 -6 12 -8 0 -12 -4 -9 -9z"/>
<path d="M4006 4111 c-4 -7 -5 -15 -2 -18 9 -9 19 4 14 18 -4 11 -6 11 -12 0z"/>
<path d="M779 4069 c-8 -15 -8 -19 0 -15 6 4 11 3 11 -3 0 -5 -8 -12 -17 -15
-14 -4 -14 -4 2 -3 14 2 20 10 20 30 1 33 -1 33 -16 6z"/>
<path d="M910 4080 c0 -5 5 -10 10 -10 6 0 10 5 10 10 0 6 -4 10 -10 10 -5 0
-10 -4 -10 -10z"/>
<path d="M4160 4066 c0 -2 7 -7 16 -10 8 -3 12 -2 9 4 -6 10 -25 14 -25 6z"/>
<path d="M4210 4066 c0 -3 9 -10 20 -16 11 -6 20 -8 20 -6 0 3 -9 10 -20 16
-11 6 -20 8 -20 6z"/>
<path d="M4050 4050 c0 -5 4 -10 9 -10 6 0 13 5 16 10 3 6 -1 10 -9 10 -9 0
-16 -4 -16 -10z"/>
<path d="M2718 4033 c7 -3 16 -2 19 1 4 3 -2 6 -13 5 -11 0 -14 -3 -6 -6z"/>
<path d="M2095 4010 c-3 -6 1 -7 9 -4 18 7 21 14 7 14 -6 0 -13 -4 -16 -10z"/>
<path d="M2696 4008 c3 -5 10 -6 15 -3 13 9 11 12 -6 12 -8 0 -12 -4 -9 -9z"/>
<path d="M2106 3992 c-2 -4 4 -8 14 -8 10 0 16 4 14 8 -3 4 -9 8 -14 8 -5 0
-11 -4 -14 -8z"/>
<path d="M2770 3976 c0 -2 7 -9 15 -16 12 -10 15 -10 15 4 0 9 -7 16 -15 16
-8 0 -15 -2 -15 -4z"/>
<path d="M4211 3964 c0 -11 3 -14 6 -6 3 7 2 16 -1 19 -3 4 -6 -2 -5 -13z"/>
<path d="M2036 3952 c-3 -5 1 -9 9 -9 8 0 12 4 9 9 -3 4 -7 8 -9 8 -2 0 -6 -4
-9 -8z"/>
<path d="M2820 3940 c6 -11 15 -18 19 -15 5 3 11 -2 15 -10 3 -8 11 -15 18
-15 9 0 8 3 -2 10 -10 6 -11 10 -2 10 6 0 12 8 11 18 0 10 -3 12 -6 5 -2 -7
-9 -13 -14 -13 -4 0 -7 6 -5 13 1 6 1 9 -1 5 -3 -5 -14 -3 -25 3 -18 10 -18 9
-8 -11z"/>
<path d="M700 3939 c0 -5 5 -7 10 -4 6 3 10 8 10 11 0 2 -4 4 -10 4 -5 0 -10
-5 -10 -11z"/>
<path d="M740 3919 c0 -9 7 -22 15 -29 19 -16 19 0 0 26 -12 16 -14 16 -15 3z"/>
<path d="M624 3872 c3 -6 0 -14 -8 -19 -12 -7 -12 -11 1 -28 14 -18 15 -18 9
-1 -3 10 -2 24 4 31 8 10 8 15 -1 21 -7 4 -9 3 -5 -4z"/>
<path d="M1990 3870 c-12 -7 -10 -9 7 -7 12 0 19 5 17 9 -6 10 -6 10 -24 -2z"/>
<path d="M2914 3869 c-3 -6 -3 -13 0 -16 3 -4 6 -1 6 5 0 19 18 14 22 -5 3
-16 5 -15 9 2 5 15 1 21 -12 22 -10 1 -21 -3 -25 -8z"/>
<path d="M2930 3820 c0 -5 5 -10 10 -10 6 0 10 5 10 10 0 6 -4 10 -10 10 -5 0
-10 -4 -10 -10z"/>
<path d="M4320 3815 c0 -8 5 -15 10 -15 6 0 10 7 10 15 0 8 -4 15 -10 15 -5 0
-10 -7 -10 -15z"/>
<path d="M2810 3770 c0 -5 5 -10 10 -10 6 0 10 5 10 10 0 6 -4 10 -10 10 -5 0
-10 -4 -10 -10z"/>
<path d="M2777 3740 c-3 -11 0 -23 5 -27 7 -3 8 -1 4 5 -4 7 -3 12 2 12 5 0 9
7 9 15 0 22 -14 18 -20 -5z"/>
<path d="M2860 3750 c0 -5 5 -10 10 -10 6 0 10 5 10 10 0 6 -4 10 -10 10 -5 0
-10 -4 -10 -10z"/>
<path d="M536 3741 c-4 -6 -2 -11 3 -11 6 0 11 -5 11 -11 0 -5 -4 -7 -10 -4
-5 3 -10 2 -10 -4 0 -18 18 -21 24 -5 8 20 -8 51 -18 35z"/>
<path d="M511 3676 c-7 -8 -8 -17 -3 -20 6 -3 12 3 15 14 6 24 4 25 -12 6z"/>
<path d="M535 3659 c-11 -16 -1 -19 13 -3 7 8 8 14 3 14 -5 0 -13 -5 -16 -11z"/>
<path d="M1946 3635 c-9 -26 -7 -32 5 -12 6 10 9 21 6 23 -2 3 -7 -2 -11 -11z"/>
<path d="M460 3611 c0 -6 4 -13 10 -16 6 -3 7 1 4 9 -7 18 -14 21 -14 7z"/>
<path d="M1920 3601 c0 -6 4 -13 10 -16 6 -3 7 1 4 9 -7 18 -14 21 -14 7z"/>
<path d="M2814 3515 c8 -8 18 -15 22 -15 3 0 1 7 -6 15 -7 8 -17 15 -22 15 -5
0 -3 -7 6 -15z"/>
<path d="M400 3463 c0 -10 9 -29 20 -43 16 -20 20 -22 20 -7 0 9 -4 17 -10 17
-5 0 -10 9 -10 19 0 11 -4 23 -10 26 -5 3 -10 -2 -10 -12z"/>
<path d="M379 3468 c-1 -2 -3 -22 -4 -46 -2 -24 -11 -52 -21 -63 -9 -10 -14
-19 -9 -19 13 0 34 33 36 55 1 14 4 11 10 -10 8 -28 8 -28 3 5 -3 19 -6 45 -7
58 -2 20 -5 27 -8 20z"/>
<path d="M4592 3440 c7 -10 14 -18 15 -16 6 6 -9 36 -18 36 -5 0 -4 -9 3 -20z"/>
<path d="M4560 3420 c-20 -12 -5 -24 16 -12 9 5 12 12 7 15 -5 3 -15 2 -23 -3z"/>
<path d="M1796 3387 c3 -10 9 -15 12 -12 3 3 0 11 -7 18 -10 9 -11 8 -5 -6z"/>
<path d="M1787 3340 c-3 -11 -2 -22 2 -24 4 -3 8 6 9 20 2 29 -4 31 -11 4z"/>
<path d="M3020 3350 c0 -5 5 -10 10 -10 6 0 10 5 10 10 0 6 -4 10 -10 10 -5 0
-10 -4 -10 -10z"/>
<path d="M372 3337 c-8 -10 -6 -13 7 -13 11 0 17 6 14 13 -3 7 -6 13 -8 13 -1
0 -7 -6 -13 -13z"/>
<path d="M2970 3320 c0 -6 7 -10 15 -10 8 0 15 2 15 4 0 2 -7 6 -15 10 -8 3
-15 1 -15 -4z"/>
<path d="M3010 3291 c0 -5 5 -13 10 -16 6 -3 10 -2 10 4 0 5 -4 13 -10 16 -5
3 -10 2 -10 -4z"/>
<path d="M3150 3230 c0 -5 5 -10 11 -10 5 0 7 5 4 10 -3 6 -8 10 -11 10 -2 0
-4 -4 -4 -10z"/>
<path d="M3075 3199 c-4 -6 0 -18 9 -27 15 -15 16 -15 16 5 0 25 -15 38 -25
22z"/>
<path d="M4700 3184 c0 -8 5 -12 10 -9 6 3 10 10 10 16 0 5 -4 9 -10 9 -5 0
-10 -7 -10 -16z"/>
<path d="M1769 3163 c-5 -25 -4 -61 0 -57 7 6 11 64 5 64 -2 0 -5 -3 -5 -7z"/>
<path d="M4687 3133 c-4 -3 -7 -11 -7 -17 0 -6 5 -5 12 2 6 6 9 14 7 17 -3 3
-9 2 -12 -2z"/>
<path d="M1781 3063 c-1 -6 -4 -20 -7 -30 -5 -17 -5 -17 6 0 6 10 9 23 6 30
-3 9 -5 9 -5 0z"/>
<path d="M4728 3023 c5 -21 7 -23 10 -9 2 10 0 22 -6 28 -6 6 -7 0 -4 -19z"/>
<path d="M1786 3015 c-3 -8 -1 -15 4 -15 6 0 10 7 10 15 0 8 -2 15 -4 15 -2 0
-6 -7 -10 -15z"/>
<path d="M3161 2997 c2 -2 11 -8 20 -15 12 -9 16 -9 16 1 0 7 -9 14 -20 14
-11 1 -18 1 -16 0z"/>
<path d="M3155 2970 c3 -5 11 -10 16 -10 6 0 7 5 4 10 -3 6 -11 10 -16 10 -6
0 -7 -4 -4 -10z"/>
<path d="M238 2935 c-17 -22 -17 -23 2 -18 25 7 31 15 22 30 -5 7 -13 3 -24
-12z"/>
<path d="M4740 2940 c0 -11 5 -20 10 -20 6 0 10 9 10 20 0 11 -4 20 -10 20 -5
0 -10 -9 -10 -20z"/>
<path d="M1760 2941 c0 -5 5 -13 10 -16 6 -3 10 -2 10 4 0 5 -4 13 -10 16 -5
3 -10 2 -10 -4z"/>
<path d="M217 2855 c-4 -8 -3 -16 1 -19 4 -3 9 4 9 15 2 23 -3 25 -10 4z"/>
<path d="M3257 2818 c-4 -12 -4 -24 -2 -27 3 -2 5 1 5 8 0 7 5 9 10 6 6 -3 10
1 10 9 0 25 -17 27 -23 4z"/>
<path d="M223 2755 c-3 -9 -3 -18 -1 -21 3 -3 8 4 11 16 6 23 -1 27 -10 5z"/>
<path d="M1836 2753 c-6 -14 -5 -15 5 -6 7 7 10 15 7 18 -3 3 -9 -2 -12 -12z"/>
<path d="M191 2744 c0 -11 3 -14 6 -6 3 7 2 16 -1 19 -3 4 -6 -2 -5 -13z"/>
<path d="M1847 2693 c3 -7 6 -13 8 -13 2 0 5 6 8 13 3 8 -1 14 -8 14 -7 0 -11
-6 -8 -14z"/>
<path d="M3344 2589 c-3 -6 -1 -16 5 -22 8 -8 11 -5 11 11 0 24 -5 28 -16 11z"/>
<path d="M4812 2540 c0 -14 2 -19 5 -12 2 6 2 18 0 25 -3 6 -5 1 -5 -13z"/>
<path d="M1932 2420 c0 -14 2 -19 5 -12 2 6 2 18 0 25 -3 6 -5 1 -5 -13z"/>
<path d="M1150 2265 c0 -8 5 -15 10 -15 6 0 10 7 10 15 0 8 -4 15 -10 15 -5 0
-10 -7 -10 -15z"/>
<path d="M1220 2235 c-16 -19 -3 -40 16 -24 15 13 19 39 5 39 -5 0 -14 -7 -21
-15z"/>
<path d="M1400 2236 c0 -2 7 -6 15 -10 8 -3 15 -1 15 4 0 6 -7 10 -15 10 -8 0
-15 -2 -15 -4z"/>
<path d="M1920 2214 c0 -8 5 -12 10 -9 6 4 8 11 5 16 -9 14 -15 11 -15 -7z"/>
<path d="M2006 2216 c2 -6 14 -12 24 -13 25 -2 18 13 -9 20 -12 3 -18 0 -15
-7z"/>
<path d="M214 2195 c-3 -8 -1 -29 5 -47 8 -22 8 -34 1 -36 -14 -5 -13 -35 3
-55 10 -15 12 -4 13 60 1 52 -2 71 -8 58 -7 -17 -8 -15 -5 8 5 29 0 36 -9 12z"/>
<path d="M1411 2178 c-1 -10 5 -18 13 -18 20 0 29 17 15 26 -8 4 -9 3 -5 -4 4
-7 3 -12 -3 -12 -5 0 -12 6 -14 13 -3 7 -6 5 -6 -5z"/>
<path d="M1498 2143 c7 -3 16 -2 19 1 4 3 -2 6 -13 5 -11 0 -14 -3 -6 -6z"/>
<path d="M1207 2096 c-4 -10 -1 -13 8 -9 8 3 12 9 9 14 -7 12 -11 11 -17 -5z"/>
<path d="M2053 2103 c9 -2 23 -2 30 0 6 3 -1 5 -18 5 -16 0 -22 -2 -12 -5z"/>
<path d="M1222 2068 c-7 -7 -12 -16 -12 -22 0 -5 6 -2 14 9 8 12 20 16 34 12
12 -3 25 -1 28 4 8 14 -50 11 -64 -3z"/>
<path d="M1313 2055 c0 -9 4 -14 9 -13 5 2 10 8 10 13 0 5 -5 11 -10 13 -5 1
-9 -4 -9 -13z"/>
<path d="M4710 2011 c0 -17 3 -32 8 -34 4 -3 7 10 7 29 0 19 -3 34 -7 34 -5 0
-8 -13 -8 -29z"/>
<path d="M1468 1973 c7 -3 16 -2 19 1 4 3 -2 6 -13 5 -11 0 -14 -3 -6 -6z"/>
<path d="M1580 1976 c0 -2 7 -7 16 -10 8 -3 12 -2 9 4 -6 10 -25 14 -25 6z"/>
<path d="M1620 1970 c0 -5 5 -10 11 -10 5 0 7 5 4 10 -3 6 -8 10 -11 10 -2 0
-4 -4 -4 -10z"/>
<path d="M250 1944 c0 -8 5 -12 10 -9 6 3 10 10 10 16 0 5 -4 9 -10 9 -5 0
-10 -7 -10 -16z"/>
<path d="M1788 1923 c7 -3 16 -2 19 1 4 3 -2 6 -13 5 -11 0 -14 -3 -6 -6z"/>
<path d="M1605 1910 c-3 -5 3 -10 15 -10 12 0 18 5 15 10 -3 6 -10 10 -15 10
-5 0 -12 -4 -15 -10z"/>
<path d="M2175 1820 c-3 -6 1 -7 9 -4 18 7 21 14 7 14 -6 0 -13 -4 -16 -10z"/>
<path d="M293 1802 c-6 -5 -4 -14 8 -26 19 -19 19 -19 19 2 0 24 -11 34 -27
24z"/>
<path d="M3320 1790 c0 -5 5 -10 10 -10 6 0 10 5 10 10 0 6 -4 10 -10 10 -5 0
-10 -4 -10 -10z"/>
<path d="M2783 1783 c-20 -7 -15 -23 7 -23 11 0 20 4 20 9 0 13 -12 19 -27 14z"/>
<path d="M1315 1770 c3 -5 13 -10 21 -10 8 0 12 5 9 10 -3 6 -13 10 -21 10 -8
0 -12 -4 -9 -10z"/>
<path d="M2970 1759 c0 -5 -4 -8 -9 -4 -5 3 -13 0 -17 -6 -5 -9 0 -10 17 -6
13 4 28 7 32 7 5 0 5 5 2 10 -8 13 -25 13 -25 -1z"/>
<path d="M1280 1740 c0 -5 5 -10 10 -10 6 0 10 5 10 10 0 6 -4 10 -10 10 -5 0
-10 -4 -10 -10z"/>
<path d="M3035 1741 c-3 -6 -11 -8 -17 -5 -7 5 -9 1 -5 -9 4 -12 1 -17 -11
-18 -11 0 -13 -2 -4 -6 14 -5 58 34 49 43 -3 3 -8 0 -12 -5z"/>
<path d="M3320 1735 c0 -8 7 -15 15 -15 8 0 15 4 15 9 0 5 -7 11 -15 15 -9 3
-15 0 -15 -9z"/>
<path d="M2246 1732 c-3 -5 1 -9 9 -9 8 0 12 4 9 9 -3 4 -7 8 -9 8 -2 0 -6 -4
-9 -8z"/>
<path d="M2928 1713 c6 -2 9 -10 6 -15 -4 -7 -2 -8 5 -4 13 9 5 26 -12 25 -9
0 -8 -2 1 -6z"/>
<path d="M3057 1694 c-9 -10 2 -24 19 -24 8 0 14 7 14 15 0 15 -21 21 -33 9z"/>
<path d="M3420 1690 c-9 -6 -10 -10 -3 -10 6 0 15 5 18 10 8 12 4 12 -15 0z"/>
<path d="M3500 1690 c0 -5 5 -10 10 -10 6 0 10 5 10 10 0 6 -4 10 -10 10 -5 0
-10 -4 -10 -10z"/>
<path d="M1715 1680 c-3 -5 -2 -10 4 -10 5 0 13 5 16 10 3 6 2 10 -4 10 -5 0
-13 -4 -16 -10z"/>
<path d="M2265 1680 c3 -5 8 -10 11 -10 2 0 4 5 4 10 0 6 -5 10 -11 10 -5 0
-7 -4 -4 -10z"/>
<path d="M2958 1683 c7 -3 16 -2 19 1 4 3 -2 6 -13 5 -11 0 -14 -3 -6 -6z"/>
<path d="M3007 1679 c7 -7 15 -10 18 -7 3 3 -2 9 -12 12 -14 6 -15 5 -6 -5z"/>
<path d="M3196 1678 c5 -7 -1 -9 -18 -6 -13 2 -29 -1 -36 -8 -16 -18 -15 -19
10 -21 18 -2 20 0 8 7 -12 8 -9 10 11 10 14 0 31 -6 39 -12 12 -11 12 -10 2 4
-10 13 -10 17 0 20 8 3 6 7 -6 11 -11 5 -15 3 -10 -5z"/>
<path d="M1638 1673 c7 -3 16 -2 19 1 4 3 -2 6 -13 5 -11 0 -14 -3 -6 -6z"/>
<path d="M1671 1661 c-11 -7 -9 -10 8 -16 13 -4 25 -4 28 -1 4 3 -2 6 -13 6
-16 0 -17 2 -4 10 8 5 11 10 5 10 -5 0 -16 -4 -24 -9z"/>
<path d="M2323 1655 c0 -8 4 -12 9 -9 5 3 6 10 3 15 -9 13 -12 11 -12 -6z"/>
<path d="M1366 1652 c-2 -4 11 -7 30 -8 19 0 32 1 29 4 -7 8 -55 11 -59 4z"/>
<path d="M1545 1650 c3 -5 8 -10 11 -10 2 0 4 5 4 10 0 6 -5 10 -11 10 -5 0
-7 -4 -4 -10z"/>
<path d="M4520 1630 c0 -5 5 -10 11 -10 5 0 7 5 4 10 -3 6 -8 10 -11 10 -2 0
-4 -4 -4 -10z"/>
<path d="M3580 1589 c0 -5 5 -7 10 -4 6 3 10 8 10 11 0 2 -4 4 -10 4 -5 0 -10
-5 -10 -11z"/>
<path d="M3366 1568 c3 -5 10 -6 15 -3 13 9 11 12 -6 12 -8 0 -12 -4 -9 -9z"/>
<path d="M4560 1569 c0 -5 5 -7 10 -4 6 3 10 8 10 11 0 2 -4 4 -10 4 -5 0 -10
-5 -10 -11z"/>
<path d="M2405 1550 c-3 -5 -1 -10 4 -10 6 0 11 5 11 10 0 6 -2 10 -4 10 -3 0
-8 -4 -11 -10z"/>
<path d="M3732 1551 c-11 -6 -10 -10 4 -15 9 -3 19 -4 22 -1 3 3 0 5 -7 5 -7
0 -9 5 -6 10 7 12 4 12 -13 1z"/>
<path d="M3820 1530 c0 -5 5 -10 11 -10 5 0 7 5 4 10 -3 6 -8 10 -11 10 -2 0
-4 -4 -4 -10z"/>
<path d="M4558 1520 c-18 -17 -24 -40 -10 -40 7 0 34 51 29 55 -1 2 -10 -5
-19 -15z"/>
<path d="M4579 1503 c-13 -16 -12 -17 4 -4 9 7 17 15 17 17 0 8 -8 3 -21 -13z"/>
<path d="M3555 1501 c-3 -5 -2 -12 3 -15 5 -3 9 1 9 9 0 17 -3 19 -12 6z"/>
<path d="M4560 1459 c0 -5 5 -7 10 -4 6 3 10 8 10 11 0 2 -4 4 -10 4 -5 0 -10
-5 -10 -11z"/>
<path d="M445 1449 c-4 -6 -5 -12 -2 -15 2 -3 7 2 10 11 7 17 1 20 -8 4z"/>
<path d="M2568 1454 c-7 -43 -4 -60 12 -60 14 0 16 5 9 30 -9 31 -18 45 -21
30z m9 -36 c-3 -8 -6 -5 -6 6 -1 11 2 17 5 13 3 -3 4 -12 1 -19z"/>
<path d="M3600 1450 c0 -5 7 -10 15 -10 8 0 15 5 15 10 0 6 -7 10 -15 10 -8 0
-15 -4 -15 -10z"/>
<path d="M3902 1448 c2 -6 10 -13 16 -14 7 -1 8 0 2 3 -5 2 -8 9 -4 14 3 5 0
9 -6 9 -7 0 -10 -5 -8 -12z"/>
<path d="M4512 1438 c-14 -14 -16 -28 -3 -28 9 0 24 30 18 36 -2 2 -9 -2 -15
-8z"/>
<path d="M456 1423 c-6 -14 -5 -15 5 -6 7 7 10 15 7 18 -3 3 -9 -2 -12 -12z"/>
<path d="M3202 1398 c3 -7 12 -14 21 -16 12 -2 15 1 11 12 -7 19 -38 22 -32 4z"/>
<path d="M3667 1399 c-9 -5 -23 -7 -30 -3 -9 5 -9 4 -1 -5 9 -10 18 -10 40 3
16 8 25 15 19 15 -5 0 -18 -4 -28 -10z"/>
<path d="M4492 1396 c2 -1 10 -7 19 -14 13 -10 19 -10 27 1 8 9 4 13 -19 13
-17 1 -29 1 -27 0z"/>
<path d="M3640 1366 c0 -2 8 -10 18 -17 15 -13 16 -12 3 4 -13 16 -21 21 -21
13z"/>
<path d="M2563 1333 c0 -34 11 -36 20 -3 3 11 1 18 -3 15 -5 -3 -10 1 -12 7
-3 7 -5 -1 -5 -19z"/>
<path d="M2606 1347 c3 -10 9 -15 12 -12 3 3 0 11 -7 18 -10 9 -11 8 -5 -6z"/>
<path d="M3451 1346 c-9 -11 -9 -16 0 -22 7 -4 9 -3 5 4 -3 6 -2 13 4 17 5 3
10 -1 10 -9 0 -9 5 -16 10 -16 7 0 7 6 0 20 -13 24 -14 24 -29 6z"/>
<path d="M3360 1341 c0 -10 19 -25 25 -20 1 2 -3 10 -11 17 -8 7 -14 8 -14 3z"/>
<path d="M3860 1346 c0 -2 7 -7 16 -10 8 -3 12 -2 9 4 -6 10 -25 14 -25 6z"/>
<path d="M4487 1323 c4 -9 0 -11 -11 -7 -9 3 -16 1 -16 -5 0 -18 24 -13 42 8
16 18 15 20 -2 18 -10 -1 -16 -7 -13 -14z"/>
<path d="M3685 1311 c-9 -15 15 -25 28 -12 9 9 7 10 -7 5 -13 -5 -17 -4 -12 4
4 7 5 12 2 12 -3 0 -7 -4 -11 -9z"/>
<path d="M3786 1293 c-11 -11 -6 -23 9 -23 8 0 15 4 15 9 0 13 -16 22 -24 14z"/>
<path d="M2580 1272 c0 -15 25 -62 33 -62 4 0 7 7 7 15 0 8 -4 15 -10 15 -5 0
-10 9 -10 20 0 11 -4 20 -10 20 -5 0 -10 -4 -10 -8z"/>
<path d="M4420 1265 c0 -8 4 -15 9 -15 5 0 11 7 15 15 3 9 0 15 -9 15 -8 0
-15 -7 -15 -15z"/>
<path d="M3526 1244 c-8 -21 -8 -24 3 -24 5 0 11 9 14 20 6 24 -8 27 -17 4z"/>
<path d="M555 1230 c-3 -6 1 -7 9 -4 18 7 21 14 7 14 -6 0 -13 -4 -16 -10z"/>
<path d="M4405 1200 c-3 -5 -1 -10 4 -10 6 0 11 5 11 10 0 6 -2 10 -4 10 -3 0
-8 -4 -11 -10z"/>
<path d="M3615 1190 c-3 -5 -1 -10 4 -10 6 0 11 5 11 10 0 6 -2 10 -4 10 -3 0
-8 -4 -11 -10z"/>
<path d="M3679 1178 c11 -15 41 -15 41 -1 0 3 -6 3 -14 0 -7 -3 -20 0 -27 6
-11 10 -11 9 0 -5z"/>
<path d="M610 1176 c0 -2 8 -10 18 -17 15 -13 16 -12 3 4 -13 16 -21 21 -21
13z"/>
<path d="M3630 1170 c-9 -6 -10 -10 -3 -10 6 0 15 5 18 10 8 12 4 12 -15 0z"/>
<path d="M3960 1156 c0 -2 7 -7 16 -10 8 -3 12 -2 9 4 -6 10 -25 14 -25 6z"/>
<path d="M4343 1145 c0 -8 4 -12 9 -9 5 3 6 10 3 15 -9 13 -12 11 -12 -6z"/>
<path d="M4343 1113 c7 -11 -67 -78 -86 -78 -7 0 -11 -12 -9 -29 3 -26 1 -28
-13 -16 -8 7 -18 10 -22 6 -3 -3 0 -6 8 -7 9 0 6 -4 -6 -10 -19 -9 -18 -9 3
-5 28 5 28 3 -4 -31 -26 -27 -26 -27 -19 -4 4 15 3 21 -3 17 -16 -10 -21 -43
-5 -43 18 0 73 63 73 83 0 9 5 12 12 8 7 -4 8 -3 4 4 -4 7 12 30 40 55 35 32
44 46 34 52 -8 5 -11 4 -7 -2z"/>
<path d="M4036 1085 c-7 -19 5 -19 30 0 19 14 19 14 -2 15 -12 0 -24 -7 -28
-15z"/>
<path d="M4105 1049 c-10 -15 3 -25 16 -12 7 7 7 13 1 17 -6 3 -14 1 -17 -5z"/>
<path d="M2731 1032 c-8 -14 -5 -18 12 -19 16 -2 18 0 8 6 -7 5 -10 14 -7 20
4 6 5 11 2 11 -3 0 -10 -8 -15 -18z"/>
<path d="M3866 1018 c5 -8 1 -9 -12 -4 -14 5 -16 4 -8 -4 12 -12 47 -3 38 11
-3 5 -10 9 -15 9 -6 0 -7 -5 -3 -12z"/>
<path d="M3180 1009 c0 -5 5 -7 10 -4 6 3 10 8 10 11 0 2 -4 4 -10 4 -5 0 -10
-5 -10 -11z"/>
<path d="M3930 1012 c0 -5 7 -9 15 -9 8 0 15 4 15 9 0 4 -7 8 -15 8 -8 0 -15
-4 -15 -8z"/>
<path d="M885 990 c-3 -5 1 -10 9 -10 9 0 16 5 16 10 0 6 -4 10 -9 10 -6 0
-13 -4 -16 -10z"/>
<path d="M4166 963 c-6 -14 -5 -15 5 -6 7 7 10 15 7 18 -3 3 -9 -2 -12 -12z"/>
<path d="M2755 939 c-8 -23 -1 -34 14 -24 13 8 15 45 2 45 -5 0 -13 -9 -16
-21z"/>
<path d="M940 934 c0 -8 5 -12 10 -9 6 3 10 10 10 16 0 5 -4 9 -10 9 -5 0 -10
-7 -10 -16z"/>
<path d="M847 905 c2 -7 10 -12 17 -12 7 0 13 5 13 12 0 6 -8 11 -18 11 -9 0
-15 -5 -12 -11z"/>
<path d="M2720 874 c0 -8 5 -12 10 -9 6 3 10 10 10 16 0 5 -4 9 -10 9 -5 0
-10 -7 -10 -16z"/>
<path d="M2805 880 c-3 -6 1 -7 9 -4 18 7 21 14 7 14 -6 0 -13 -4 -16 -10z"/>
<path d="M3052 882 c-9 -7 -7 -13 9 -28 22 -19 22 -19 11 2 -6 12 -8 24 -5 28
9 8 1 7 -15 -2z"/>
<path d="M3083 875 c0 -8 4 -12 9 -9 4 3 8 9 8 15 0 5 -4 9 -8 9 -5 0 -9 -7
-9 -15z"/>
<path d="M3120 870 c-6 -11 -7 -20 -3 -20 5 0 14 9 21 20 7 11 8 20 2 20 -5 0
-14 -9 -20 -20z"/>
<path d="M2900 870 c8 -5 22 -10 30 -10 13 0 13 1 0 10 -8 5 -22 10 -30 10
-13 0 -13 -1 0 -10z"/>
<path d="M2815 860 c-4 -7 3 -8 22 -4 38 9 42 14 10 14 -14 0 -29 -5 -32 -10z"/>
<path d="M3155 860 c-3 -5 -1 -10 4 -10 6 0 11 5 11 10 0 6 -2 10 -4 10 -3 0
-8 -4 -11 -10z"/>
<path d="M4016 824 c-9 -8 -16 -20 -16 -26 0 -6 1 -9 3 -7 1 2 11 14 21 27 22
25 16 30 -8 6z"/>
<path d="M944 806 c1 -8 5 -18 8 -22 4 -3 5 1 4 10 -1 8 -5 18 -8 22 -4 3 -5
-1 -4 -10z"/>
<path d="M4020 778 c0 -19 2 -20 10 -8 13 19 13 30 0 30 -5 0 -10 -10 -10 -22z"/>
<path d="M1030 780 c19 -13 30 -13 30 0 0 6 -10 10 -22 10 -19 0 -20 -2 -8
-10z"/>
<path d="M3940 740 c0 -5 5 -10 11 -10 5 0 7 5 4 10 -3 6 -8 10 -11 10 -2 0
-4 -4 -4 -10z"/>
<path d="M3970 725 c0 -8 4 -15 9 -15 5 0 11 7 15 15 3 9 0 15 -9 15 -8 0 -15
-7 -15 -15z"/>
<path d="M1170 670 c0 -5 7 -10 15 -10 8 0 15 5 15 10 0 6 -7 10 -15 10 -8 0
-15 -4 -15 -10z"/>
<path d="M3870 650 c5 -10 6 -21 2 -26 -4 -5 1 -2 12 6 11 8 14 16 7 18 -6 2
-9 7 -7 11 3 4 -1 8 -9 8 -10 0 -11 -5 -5 -17z"/>
<path d="M1197 593 c-11 -11 -8 -20 8 -20 8 0 15 6 15 14 0 14 -12 17 -23 6z"/>
<path d="M1260 581 c0 -6 4 -13 10 -16 6 -3 7 1 4 9 -7 18 -14 21 -14 7z"/>
<path d="M3720 570 c0 -5 5 -10 10 -10 6 0 10 5 10 10 0 6 -4 10 -10 10 -5 0
-10 -4 -10 -10z"/>
<path d="M3690 540 c-8 -26 -7 -41 2 -32 6 6 8 16 5 24 -3 7 -6 11 -7 8z"/>
<path d="M1290 516 c0 -2 7 -7 16 -10 8 -3 12 -2 9 4 -6 10 -25 14 -25 6z"/>
<path d="M1404 512 c-8 -5 -4 -13 12 -25 19 -14 22 -15 18 -2 -3 8 -10 15 -16
15 -5 0 -6 5 -3 10 7 12 4 12 -11 2z"/>
<path d="M1575 510 c3 -5 10 -10 16 -10 5 0 9 5 9 10 0 6 -7 10 -16 10 -8 0
-12 -4 -9 -10z"/>
<path d="M3440 510 c0 -5 6 -10 14 -10 8 0 18 5 21 10 3 6 -3 10 -14 10 -12 0
-21 -4 -21 -10z"/>
<path d="M3646 508 c3 -4 9 -8 15 -8 5 0 9 4 9 8 0 5 -7 9 -15 9 -8 0 -12 -4
-9 -9z"/>
<path d="M3496 451 c-3 -5 3 -11 15 -14 16 -4 18 -3 8 9 -13 16 -16 17 -23 5z"/>
<path d="M1465 431 c-3 -5 -2 -12 3 -15 5 -3 9 1 9 9 0 17 -3 19 -12 6z"/>
<path d="M1499 438 c-8 -27 -5 -36 9 -30 10 4 12 7 4 10 -7 2 -10 8 -6 13 3 5
3 9 0 9 -3 0 -6 -1 -7 -2z"/>
<path d="M1575 430 c-3 -5 -2 -10 4 -10 5 0 13 5 16 10 3 6 2 10 -4 10 -5 0
-13 -4 -16 -10z"/>
<path d="M3410 425 c0 -13 4 -14 20 -5 11 6 20 13 20 15 0 3 -9 5 -20 5 -11 0
-20 -7 -20 -15z"/>
<path d="M3467 429 c7 -7 15 -10 18 -7 3 3 -2 9 -12 12 -14 6 -15 5 -6 -5z"/>
<path d="M3280 350 c8 -5 20 -10 25 -10 6 0 3 5 -5 10 -8 5 -19 10 -25 10 -5
0 -3 -5 5 -10z"/>
<path d="M1744 332 c3 -5 0 -13 -6 -15 -9 -4 -10 -6 -1 -6 17 -1 25 16 12 25
-7 4 -9 3 -5 -4z"/>
<path d="M3200 332 c0 -6 -8 -13 -17 -15 -16 -4 -16 -5 -1 -6 18 -1 34 16 24
26 -3 4 -6 1 -6 -5z"/>
<path d="M3240 330 c-24 -15 -7 -18 20 -3 14 7 18 13 10 13 -8 0 -22 -4 -30
-10z"/>
<path d="M3255 310 c-3 -6 1 -7 9 -4 18 7 21 14 7 14 -6 0 -13 -4 -16 -10z"/>
<path d="M2959 284 c18 -8 36 -13 39 -10 6 6 -43 26 -61 25 -7 0 3 -7 22 -15z"/>
<path d="M1927 269 c7 -7 15 -10 18 -7 3 3 -2 9 -12 12 -14 6 -15 5 -6 -5z"/>
<path d="M3020 270 c-13 -8 -12 -10 3 -10 10 0 15 -4 12 -10 -3 -6 1 -7 10 -3
9 3 13 9 8 12 -4 3 -10 9 -13 13 -3 4 -12 3 -20 -2z"/>
<path d="M2040 250 c-14 -4 -20 -8 -13 -9 6 -1 18 -4 26 -7 8 -3 17 2 20 10 7
17 4 18 -33 6z"/>
<path d="M2880 230 c0 -5 5 -10 10 -10 6 0 10 5 10 10 0 6 -4 10 -10 10 -5 0
-10 -4 -10 -10z"/>
</g>
</svg>
